<svg width="400" height="300" viewBox="0 0 400 300" fill="none" xmlns="http://www.w3.org/2000/svg">
<g clip-path="url(#clip0)">
<path d="M22.7467 300.247L16.2559 282.072C16.2559 282.072 23.3958 285.642 23.7204 290.186C23.7204 290.186 22.0976 267.468 18.8522 262.6C18.8522 262.6 24.0449 263.249 29.8867 288.563C29.8867 288.563 30.8603 259.354 22.0976 250.916C22.0976 250.916 34.1058 260.652 35.0794 281.748V300.247H22.7467Z" fill="#57B793"/>
<path d="M241.924 299.978L246.202 288C246.202 288 241.496 290.352 241.283 293.347C241.283 293.347 242.352 278.374 244.491 275.165C244.491 275.165 241.069 275.593 237.218 292.278C237.218 292.278 236.577 273.026 242.352 267.465C242.352 267.465 234.438 273.882 233.796 287.786V299.978H241.924Z" fill="#57B793"/>
<path d="M173.446 299.978L170.053 290.478C170.053 290.478 173.785 292.344 173.955 294.719C173.955 294.719 173.106 282.844 171.41 280.299C171.41 280.299 174.124 280.638 177.178 293.871C177.178 293.871 177.687 278.602 173.106 274.192C173.106 274.192 179.383 279.281 179.892 290.308V299.978H173.446Z" fill="#57B793"/>
<path d="M169.672 241.444C167.96 241.444 166.239 241.388 164.544 241.281L164.598 240.427C166.277 240.534 167.982 240.588 169.667 240.588L169.718 240.588V241.443L169.677 241.444L169.672 241.444ZM174.893 241.274L174.837 240.42C176.534 240.309 178.249 240.141 179.934 239.921L180.046 240.769C178.342 240.992 176.609 241.162 174.893 241.274V241.274ZM159.391 240.783C157.685 240.562 155.965 240.281 154.281 239.949L154.446 239.109C156.113 239.438 157.813 239.716 159.501 239.934L159.391 240.783ZM185.154 239.928L184.988 239.089C186.655 238.759 188.333 238.368 189.975 237.928L190.197 238.755C188.536 239.199 186.84 239.594 185.154 239.928V239.928ZM149.237 238.782C147.579 238.34 145.912 237.837 144.281 237.285L144.555 236.474C146.168 237.02 147.818 237.518 149.457 237.955L149.237 238.782ZM195.151 237.251L194.876 236.441C196.481 235.895 198.09 235.289 199.66 234.637L199.988 235.428C198.401 236.086 196.774 236.7 195.151 237.251ZM139.426 235.461C137.838 234.804 136.25 234.084 134.704 233.322L135.082 232.555C136.611 233.309 138.183 234.02 139.753 234.67L139.426 235.461ZM204.697 233.289L204.318 232.522C205.842 231.768 207.359 230.955 208.828 230.105L209.256 230.846C207.772 231.705 206.238 232.527 204.697 233.289V233.289ZM130.133 230.878C128.644 230.018 127.164 229.097 125.734 228.14L126.209 227.429C127.624 228.375 129.088 229.286 130.561 230.137L130.133 230.878ZM213.647 228.108L213.171 227.397C214.581 226.454 215.981 225.449 217.33 224.412L217.851 225.09C216.487 226.139 215.073 227.154 213.647 228.108V228.108ZM121.523 225.122C120.16 224.076 118.813 222.97 117.519 221.836L118.083 221.193C119.363 222.315 120.696 223.408 122.044 224.443L121.523 225.122ZM221.852 221.804L221.287 221.161C222.564 220.039 223.822 218.861 225.025 217.659L225.63 218.264C224.414 219.479 223.143 220.67 221.852 221.804ZM113.738 218.298C112.522 217.083 111.33 215.813 110.196 214.522L110.838 213.957C111.96 215.234 113.139 216.491 114.343 217.693L113.738 218.298ZM229.171 214.485L228.527 213.921C229.649 212.642 230.744 211.31 231.78 209.962L232.459 210.483C231.411 211.846 230.305 213.193 229.171 214.485ZM106.907 210.524C105.859 209.163 104.843 207.749 103.886 206.322L104.597 205.846C105.543 207.257 106.548 208.656 107.585 210.002L106.907 210.524ZM235.48 206.275L234.769 205.799C235.716 204.384 236.628 202.921 237.48 201.448L238.22 201.877C237.359 203.365 236.437 204.845 235.48 206.275ZM101.146 201.933C100.284 200.446 99.4608 198.912 98.6998 197.375L99.4665 196.996C100.219 198.516 101.034 200.033 101.886 201.504L101.146 201.933ZM240.667 197.308L239.9 196.929C240.653 195.405 241.366 193.834 242.018 192.26L242.809 192.587C242.149 194.178 241.428 195.767 240.667 197.308V197.308ZM96.5583 192.668C95.899 191.082 95.2843 189.455 94.7311 187.832L95.5412 187.556C96.0881 189.162 96.6962 190.771 97.3483 192.34L96.5583 192.668ZM244.636 187.734L243.826 187.46C244.372 185.849 244.871 184.2 245.31 182.558L246.136 182.779C245.693 184.438 245.188 186.106 244.636 187.734ZM93.2242 182.878C92.7784 181.219 92.3824 179.522 92.0467 177.837L92.886 177.67C93.2177 179.337 93.6096 181.015 94.0506 182.657L93.2242 182.878ZM247.307 177.735L246.467 177.569C246.797 175.902 247.076 174.201 247.295 172.515L248.143 172.626C247.922 174.33 247.64 176.049 247.307 177.735ZM91.2034 172.729C90.9797 171.029 90.8088 169.296 90.6952 167.577L91.5491 167.521C91.6613 169.221 91.8305 170.936 92.0517 172.617L91.2034 172.729ZM248.645 167.473L247.791 167.418C247.9 165.728 247.956 164.005 247.956 162.299L247.955 162.096H248.811L248.811 162.297C248.811 164.024 248.755 165.764 248.645 167.473ZM91.3778 162.402H90.5222L90.5224 162.297C90.5224 160.611 90.5761 158.905 90.6822 157.228L91.5362 157.282C91.4313 158.941 91.378 160.629 91.378 162.299L91.3778 162.402ZM247.778 156.978C247.664 155.281 247.493 153.566 247.269 151.882L248.117 151.769C248.344 153.472 248.516 155.205 248.632 156.921L247.778 156.978ZM92.0254 152.184L91.1769 152.075C91.3966 150.37 91.6761 148.651 92.007 146.964L92.8467 147.129C92.5192 148.797 92.2428 150.498 92.0254 152.184ZM246.428 146.83C246.094 145.164 245.7 143.487 245.256 141.845L246.083 141.622C246.531 143.282 246.929 144.978 247.266 146.663L246.428 146.83ZM93.9981 142.139L93.1714 141.919C93.6129 140.257 94.1157 138.589 94.6655 136.962L95.476 137.236C94.9323 138.845 94.4351 140.495 93.9981 142.139ZM243.76 136.947C243.21 135.341 242.6 133.732 241.946 132.167L242.736 131.837C243.397 133.42 244.014 135.046 244.569 136.67L243.76 136.947ZM97.2765 132.433L96.4856 132.106C97.1424 130.517 97.8609 128.928 98.6215 127.383L99.389 127.761C98.6368 129.289 97.9259 130.861 97.2765 132.433ZM239.822 127.513C239.069 125.997 238.253 124.481 237.397 123.008L238.136 122.578C239.002 124.067 239.827 125.6 240.588 127.133L239.822 127.513ZM101.804 123.238L101.063 122.81C101.921 121.322 102.841 119.841 103.797 118.409L104.509 118.884C103.563 120.301 102.653 121.765 101.804 123.238V123.238ZM234.681 118.669C233.732 117.258 232.724 115.86 231.687 114.516L232.365 113.994C233.413 115.352 234.431 116.765 235.391 118.192L234.681 118.669ZM107.492 114.717L106.813 114.197C107.859 112.832 108.964 111.484 110.096 110.191L110.74 110.754C109.62 112.034 108.527 113.367 107.492 114.717V114.717ZM228.428 110.566C227.306 109.292 226.125 108.037 224.919 106.835L225.523 106.229C226.742 107.443 227.936 108.712 229.07 110L228.428 110.566ZM114.238 107.011L113.632 106.407C114.846 105.19 116.116 103.998 117.406 102.862L117.971 103.505C116.695 104.628 115.439 105.808 114.238 107.011V107.011ZM221.174 103.34C219.892 102.219 218.558 101.127 217.209 100.094L217.729 99.4149C219.093 100.459 220.442 101.562 221.737 102.695L221.174 103.34ZM121.923 100.249L121.401 99.5709C122.762 98.5223 124.175 97.505 125.601 96.5472L126.078 97.2575C124.667 98.205 123.269 99.2114 121.923 100.249V100.249ZM213.04 97.1135C211.625 96.1698 210.159 95.2607 208.685 94.4113L209.112 93.6698C210.602 94.5285 212.084 95.4476 213.515 96.4016L213.04 97.1135ZM130.419 94.5442L129.989 93.8043C131.473 92.9426 133.006 92.1185 134.545 91.3551L134.925 92.1217C133.403 92.8768 131.887 93.6919 130.419 94.5442V94.5442ZM204.16 91.9995C202.632 91.2481 201.06 90.5385 199.487 89.8899L199.813 89.099C201.403 89.7545 202.993 90.4721 204.538 91.2316L204.16 91.9995ZM139.58 90.0004L139.251 89.2106C140.836 88.5503 142.463 87.9345 144.086 87.3805L144.362 88.1902C142.757 88.7383 141.148 89.3474 139.58 90.0004ZM194.683 88.0924C193.072 87.5495 191.422 87.0534 189.779 86.6178L189.997 85.7906C191.659 86.231 193.327 86.7325 194.956 87.2815L194.683 88.0924ZM149.261 86.6966L149.039 85.8702C150.697 85.4236 152.393 85.0265 154.079 84.6895L154.247 85.5285C152.579 85.8619 150.902 86.2548 149.261 86.6966L149.261 86.6966ZM184.787 85.4698C183.121 85.1437 181.42 84.8686 179.732 84.6517L179.841 83.8032C181.547 84.0221 183.267 84.3004 184.952 84.63L184.787 85.4698ZM159.299 84.691L159.187 83.8429C160.887 83.6182 162.619 83.446 164.339 83.3316L164.395 84.1853C162.695 84.2985 160.98 84.4688 159.299 84.691V84.691ZM174.634 84.1657C172.992 84.0629 171.321 84.0107 169.667 84.0107L169.515 84.0109V83.1553L169.665 83.1551C171.339 83.1551 173.028 83.2077 174.687 83.3117L174.634 84.1657Z" fill="#D1D1D1"/>
<path d="M296.303 158.289C294.591 158.289 292.87 158.233 291.175 158.126L291.23 157.272C292.908 157.379 294.613 157.433 296.298 157.433L296.349 157.433V158.288L296.309 158.289L296.303 158.289ZM301.525 158.119L301.469 157.265C303.166 157.154 304.881 156.986 306.566 156.766L306.677 157.614C304.973 157.837 303.24 158.007 301.525 158.119ZM286.022 157.628C284.316 157.407 282.597 157.126 280.912 156.794L281.078 155.954C282.744 156.283 284.444 156.561 286.132 156.779L286.022 157.628ZM311.785 156.773L311.619 155.934C313.286 155.604 314.964 155.213 316.606 154.773L316.828 155.6C315.168 156.044 313.471 156.439 311.785 156.773V156.773ZM275.868 155.626C274.21 155.185 272.543 154.681 270.912 154.13L271.186 153.319C272.799 153.865 274.449 154.363 276.088 154.8L275.868 155.626ZM321.782 154.096L321.507 153.286C323.112 152.74 324.721 152.134 326.291 151.482L326.619 152.273C325.032 152.931 323.405 153.545 321.782 154.096ZM266.057 152.306C264.469 151.649 262.881 150.929 261.335 150.167L261.713 149.4C263.242 150.154 264.814 150.865 266.384 151.515L266.057 152.306ZM331.328 150.134L330.949 149.367C332.473 148.613 333.99 147.8 335.459 146.95L335.887 147.691C334.403 148.55 332.869 149.372 331.328 150.134V150.134ZM256.764 147.723C255.275 146.863 253.795 145.941 252.365 144.985L252.84 144.274C254.255 145.22 255.719 146.131 257.192 146.982L256.764 147.723ZM340.278 144.953L339.802 144.242C341.212 143.299 342.612 142.294 343.961 141.257L344.482 141.935C343.118 142.984 341.704 143.999 340.278 144.953V144.953ZM248.155 141.967C246.792 140.921 245.444 139.815 244.151 138.681L244.715 138.038C245.994 139.16 247.327 140.253 248.676 141.288L248.155 141.967ZM348.483 138.649L347.918 138.006C349.195 136.884 350.453 135.706 351.656 134.504L352.261 135.109C351.045 136.324 349.774 137.515 348.483 138.649ZM240.37 135.143C239.153 133.928 237.961 132.658 236.827 131.367L237.47 130.802C238.592 132.079 239.771 133.336 240.974 134.538L240.37 135.143ZM355.802 131.33L355.158 130.766C356.281 129.487 357.375 128.155 358.411 126.807L359.09 127.328C358.042 128.691 356.936 130.038 355.802 131.33V131.33ZM233.538 127.369C232.49 126.007 231.474 124.594 230.517 123.167L231.228 122.691C232.174 124.102 233.18 125.5 234.216 126.847L233.538 127.369ZM362.111 123.12L361.4 122.644C362.347 121.229 363.259 119.766 364.111 118.293L364.851 118.722C363.99 120.21 363.068 121.69 362.111 123.12V123.12ZM227.777 118.778C226.915 117.291 226.092 115.757 225.331 114.22L226.098 113.84C226.85 115.361 227.665 116.878 228.517 118.349L227.777 118.778ZM367.298 114.153L366.531 113.774C367.284 112.25 367.997 110.678 368.649 109.105L369.44 109.432C368.78 111.023 368.059 112.612 367.298 114.153V114.153ZM223.189 109.513C222.53 107.927 221.915 106.3 221.362 104.677L222.172 104.401C222.719 106.007 223.327 107.616 223.979 109.184L223.189 109.513ZM371.267 104.579L370.457 104.305C371.003 102.694 371.502 101.044 371.941 99.4026L372.767 99.6236C372.324 101.283 371.819 102.951 371.267 104.579ZM219.855 99.7234C219.41 98.0636 219.013 96.3672 218.678 94.6817L219.517 94.5145C219.849 96.1819 220.241 97.8597 220.682 99.5016L219.855 99.7234ZM373.938 94.5799L373.098 94.4141C373.428 92.7467 373.707 91.0463 373.926 89.3602L374.774 89.4709C374.553 91.1754 374.271 92.8944 373.938 94.5799ZM217.835 89.5739C217.611 87.8741 217.44 86.141 217.326 84.4222L218.18 84.3658C218.292 86.0662 218.462 87.7807 218.683 89.4623L217.835 89.5739ZM375.276 84.3182L374.422 84.263C374.531 82.5725 374.587 80.8504 374.587 79.1444L374.586 78.9413H375.442L375.443 79.1417C375.442 80.8686 375.387 82.6093 375.276 84.3182V84.3182ZM218.009 79.2465H217.153L217.154 79.1417C217.154 77.4559 217.207 75.7497 217.313 74.0731L218.167 74.1271C218.062 75.7859 218.009 77.4739 218.009 79.1444L218.009 79.2465ZM374.409 73.8229C374.295 72.1257 374.124 70.4111 373.9 68.727L374.748 68.6142C374.975 70.3169 375.148 72.05 375.263 73.7657L374.409 73.8229ZM218.656 69.0291L217.808 68.9196C218.028 67.2151 218.307 65.4957 218.638 63.8093L219.478 63.9744C219.15 65.6421 218.874 67.3429 218.656 69.0291ZM373.059 63.6754C372.725 62.0091 372.331 60.3319 371.888 58.69L372.714 58.467C373.162 60.127 373.56 61.8228 373.898 63.5075L373.059 63.6754ZM220.629 58.9842L219.802 58.7644C220.244 57.1021 220.747 55.4341 221.297 53.8068L222.107 54.0805C221.563 55.69 221.066 57.3398 220.629 58.9842ZM370.391 53.7924C369.841 52.1856 369.231 50.5772 368.578 49.0115L369.367 48.6819C370.028 50.2649 370.645 51.8911 371.2 53.5154L370.391 53.7924ZM223.908 49.2781L223.117 48.9514C223.773 47.3617 224.492 45.7725 225.253 44.2277L226.02 44.6058C225.268 46.1337 224.557 47.7056 223.908 49.2781ZM366.453 44.3583C365.7 42.8415 364.884 41.3258 364.028 39.8527L364.767 39.4228C365.633 40.9118 366.458 42.4444 367.219 43.9777L366.453 44.3583ZM228.435 40.0827L227.694 39.6553C228.552 38.1666 229.472 36.6858 230.428 35.2542L231.14 35.7293C230.194 37.1455 229.284 38.6103 228.435 40.0827ZM361.312 35.5143C360.363 34.1026 359.355 32.7053 358.318 31.3611L358.996 30.8385C360.044 32.1973 361.063 33.6098 362.022 35.0368L361.312 35.5143ZM234.123 31.5623L233.444 31.0417C234.49 29.6771 235.595 28.3291 236.727 27.0356L237.371 27.5992C236.251 28.8789 235.158 30.2122 234.123 31.5623V31.5623ZM355.059 27.4108C353.937 26.1368 352.757 24.8816 351.55 23.6798L352.154 23.0736C353.373 24.2883 354.567 25.5573 355.701 26.8451L355.059 27.4108ZM240.869 23.8563L240.263 23.2522C241.477 22.0352 242.747 20.8425 244.037 19.7073L244.602 20.3495C243.326 21.4727 242.07 22.6525 240.869 23.8563V23.8563ZM347.805 20.1845C346.523 19.0638 345.189 17.9719 343.84 16.9391L344.36 16.2598C345.724 17.3036 347.073 18.4074 348.368 19.5403L347.805 20.1845ZM248.554 17.0935L248.032 16.4159C249.393 15.3672 250.806 14.3499 252.232 13.3922L252.71 14.1024C251.299 15.0499 249.9 16.0564 248.554 17.0935V17.0935ZM339.671 13.9585C338.256 13.0147 336.79 12.1056 335.316 11.2563L335.743 10.5147C337.234 11.3735 338.715 12.2926 340.146 13.2466L339.671 13.9585ZM257.05 11.3891L256.62 10.6492C258.104 9.78756 259.637 8.96349 261.176 8.2L261.557 8.96663C260.034 9.72176 258.518 10.5369 257.05 11.3891V11.3891ZM330.791 8.84442C329.263 8.09305 327.691 7.38346 326.118 6.73484L326.444 5.94399C328.034 6.59948 329.624 7.31702 331.169 8.07654L330.791 8.84442ZM266.211 6.84534L265.882 6.05553C267.467 5.39522 269.094 4.77941 270.717 4.22544L270.994 5.0351C269.388 5.58323 267.779 6.19235 266.211 6.84534ZM321.314 4.93732C319.703 4.39443 318.053 3.8983 316.41 3.46276L316.629 2.63556C318.29 3.0759 319.958 3.57744 321.587 4.1264L321.314 4.93732ZM275.892 3.54151L275.67 2.71514C277.329 2.26851 279.025 1.87144 280.71 1.5345L280.878 2.3734C279.21 2.7068 277.533 3.09973 275.892 3.54153V3.54151ZM311.418 2.3147C309.752 1.98862 308.052 1.71352 306.363 1.49669L306.472 0.648171C308.179 0.867088 309.898 1.14533 311.583 1.47496L311.418 2.3147ZM285.93 1.53596L285.818 0.687863C287.518 0.463097 289.251 0.290969 290.97 0.176496L291.027 1.03023C289.326 1.14347 287.611 1.31371 285.93 1.53597V1.53596ZM301.265 1.01061C299.623 0.907839 297.952 0.855615 296.298 0.855615L296.146 0.855821V0.000205626L296.296 0C297.97 0 299.659 0.0526207 301.319 0.156668L301.265 1.01061Z" fill="#D1D1D1"/>
<path d="M95.8844 61.9578H95.8844C84.0266 61.9578 75.394 70.0093 72.4839 81.5045L68.8762 98.7493H71.4431L77.0046 84.6316L75.8337 98.7493H78.7158L80.8548 91.4766L80.4045 98.7493H115.079V81.1528C115.079 78.6321 114.583 76.136 113.618 73.8072C112.654 71.4784 111.24 69.3623 109.457 67.5799C107.675 65.7975 105.559 64.3836 103.23 63.419C100.901 62.4543 98.4052 61.9578 95.8844 61.9578V61.9578Z" fill="#2F2E41"/>
<path d="M90.9082 84.4177C90.9082 84.4177 92.6195 94.6851 88.3414 96.3963C84.0633 98.1076 83.6355 98.1076 83.6355 98.1076L91.336 121.637L100.748 124.632L111.015 96.8241L106.309 94.6851C106.309 94.6851 101.603 88.268 103.315 84.4177H90.9082Z" fill="#A0616A"/>
<path d="M75.9353 165.273C75.9353 165.273 67.3791 175.541 69.5182 211.049L69.0904 221.316C69.0904 221.316 46.8444 279.07 61.3898 282.065C75.9353 285.059 77.2187 287.198 78.5021 283.776C79.7856 280.354 100.32 201.637 100.32 201.637C100.32 201.637 117.005 283.348 125.133 282.493C133.262 281.637 143.957 284.204 143.529 277.787C143.101 271.37 133.262 222.172 133.262 222.172C133.262 222.172 131.122 163.562 119.999 160.14C108.876 156.717 86.2027 155.434 75.9353 165.273Z" fill="#2F2E41"/>
<path d="M64.8123 279.07L60.962 288.91C60.962 288.91 54.1171 298.322 58.3951 299.605C62.6732 300.888 68.6625 297.466 68.6625 297.466C68.6625 297.466 72.085 284.632 72.085 281.209L64.8123 279.07Z" fill="#2F2E41"/>
<path d="M135.828 279.07L139.678 288.91C139.678 288.91 146.523 298.322 142.245 299.605C137.967 300.888 131.978 297.466 131.978 297.466C131.978 297.466 128.555 284.632 128.555 281.209L135.828 279.07Z" fill="#2F2E41"/>
<path d="M96.4696 89.5514C102.376 89.5514 107.165 84.763 107.165 78.8562C107.165 72.9494 102.376 68.161 96.4696 68.161C90.5628 68.161 85.7744 72.9494 85.7744 78.8562C85.7744 84.763 90.5628 89.5514 96.4696 89.5514Z" fill="#A0616A"/>
<path d="M98.1809 113.509C98.1809 113.509 88.7692 109.231 84.9189 96.8242L78.074 98.9632C78.074 98.9632 80.213 112.653 78.9296 115.648C78.9296 115.648 77.2184 158.856 78.074 159.712C78.9296 160.567 71.2291 167.84 73.7959 168.696C76.3627 169.551 90.0526 167.412 88.3414 164.846L86.6301 162.279L115.721 162.707C115.721 162.707 113.582 168.696 119.571 168.696C125.561 168.696 122.138 157.145 122.138 157.145L118.288 117.359C118.288 117.359 114.01 102.813 115.293 97.6798L109.304 95.5407C109.304 95.5407 105.881 107.947 98.1809 113.509Z" fill="#3F3D56"/>
<path d="M89.2387 72.9715L88.8785 76.3939H98.6505L99.9339 73.8271L99.6639 76.3939H111.485L103.356 63.5597L85.3884 63.9875L81.1104 76.3939H87.5275L89.2387 72.9715Z" fill="#2F2E41"/>
<path d="M282.78 99.0933H171.122V162.409H282.78V99.0933Z" fill="#F2F2F2"/>
<path d="M194.438 123.906C200.108 123.906 204.705 119.309 204.705 113.639C204.705 107.968 200.108 103.371 194.438 103.371C188.767 103.371 184.17 107.968 184.17 113.639C184.17 119.309 188.767 123.906 194.438 123.906Z" fill="white"/>
<path d="M269.732 111.928H210.694V115.35H269.732V111.928Z" fill="white"/>
<path d="M269.732 120.484H210.694V123.906H269.732V120.484Z" fill="white"/>
<path d="M269.732 129.04H184.17V132.462H269.732V129.04Z" fill="white"/>
<path d="M269.732 137.596H184.17V141.018H269.732V137.596Z" fill="white"/>
<path d="M269.732 146.152H184.17V149.575H269.732V146.152Z" fill="white"/>
<path d="M269.732 154.708H184.17V158.131H269.732V154.708Z" fill="white"/>
<path d="M242.741 162.837H170.694V98.6657H283.208V123.884H282.352V99.5213H171.55V161.981H242.741V162.837Z" fill="#3F3D56" fill-opacity="0.25"/>
<path d="M152.727 183.455H41.0688V246.771H152.727V183.455Z" fill="#F2F2F2"/>
<path d="M113.116 247.199H41.0688V183.028H153.582V208.246H152.727V183.883H41.9245V246.343H113.116V247.199Z" fill="#3F3D56" fill-opacity="0.25"/>
<path d="M79.1433 98.7492C79.1433 98.7492 70.1594 98.3214 70.1594 105.594C70.1594 112.867 71.015 135.968 71.015 135.968L71.8706 143.241L71.4428 172.76C71.4428 172.76 63.3145 191.156 68.876 191.583C74.4374 192.011 77.4321 174.899 77.4321 174.899L79.1433 159.498C79.1433 159.498 78.0738 117.787 79.3572 116.075L79.1433 98.7492Z" fill="#A0616A"/>
<path d="M115.079 97.4658C115.079 97.4658 124.063 97.038 124.063 104.311C124.063 111.583 123.208 134.685 123.208 134.685L122.352 141.958L122.78 171.476C122.78 171.476 130.908 189.872 125.347 190.3C119.785 190.728 116.791 173.616 116.791 173.616L115.079 158.214C115.079 158.214 116.149 116.503 114.865 114.792L115.079 97.4658Z" fill="#A0616A"/>
<path d="M97.539 234.792C108.407 234.792 117.218 225.981 117.218 215.113C117.218 204.244 108.407 195.434 97.539 195.434C86.6705 195.434 77.8599 204.244 77.8599 215.113C77.8599 225.981 86.6705 234.792 97.539 234.792Z" fill="#4E0D4E"/>
<path d="M110.801 213.83H98.8228V201.851H96.256V213.83H84.2773V216.397H96.256V228.375H98.8228V216.397H110.801V213.83Z" fill="white"/>
<path d="M287.914 67.7029L399.571 67.7029V4.38742L287.914 4.38742V67.7029Z" fill="#F2F2F2"/>
<path d="M399.999 68.131H327.952V67.2754H399.143V4.81545H288.341V29.1778H287.486V3.95984H399.999V68.131Z" fill="#3F3D56" fill-opacity="0.25"/>
<path d="M386.737 11.2323H301.176V14.6548H386.737V11.2323Z" fill="white"/>
<path d="M386.737 18.9329H301.176V22.3553H386.737V18.9329Z" fill="white"/>
<path d="M386.737 26.6334H301.176V30.0559H386.737V26.6334Z" fill="white"/>
<path d="M386.737 34.3339H301.176V37.7564H386.737V34.3339Z" fill="white"/>
<path d="M386.737 42.0345H301.176V45.457H386.737V42.0345Z" fill="white"/>
<path d="M386.737 51.4462H368.342V61.2858H386.737V51.4462Z" fill="white"/>
<path d="M341.817 299.391H-0.000732422V300.246H341.817V299.391Z" fill="#2F2E41"/>
<path d="M281.069 168.826C285.794 168.826 289.625 164.995 289.625 160.27C289.625 155.544 285.794 151.714 281.069 151.714C276.343 151.714 272.512 155.544 272.512 160.27C272.512 164.995 276.343 168.826 281.069 168.826Z" fill="#4E0D4E"/>
<path d="M286.834 159.712H281.626V154.504H280.51V159.712H275.302V160.828H280.51V166.036H281.626V160.828H286.834V159.712Z" fill="white"/>
<path d="M285.775 74.9757C290.5 74.9757 294.331 71.1449 294.331 66.4195C294.331 61.6941 290.5 57.8634 285.775 57.8634C281.049 57.8634 277.219 61.6941 277.219 66.4195C277.219 71.1449 281.049 74.9757 285.775 74.9757Z" fill="#4E0D4E"/>
<path d="M291.54 65.8615H286.332V60.6533H285.216V65.8615H280.008V66.9776H285.216V72.1857H286.332V66.9776H291.54V65.8615Z" fill="white"/>
</g>
<defs>
<clipPath id="clip0">
<rect width="400" height="300" fill="white"/>
</clipPath>
</defs>
</svg>
