<svg width="1329" height="587" viewBox="0 0 1329 587" fill="none" xmlns="http://www.w3.org/2000/svg">
<g clip-path="url(#clip0)">
<path fill-rule="evenodd" clip-rule="evenodd" d="M129.644 215.45C129.422 215.35 129.201 215.25 128.979 215.15C128.102 217.278 125.194 218.409 125.539 221.138C125.846 221.292 126.154 221.446 126.461 221.6L129.644 215.45ZM115.135 236.995C114.843 236.872 114.551 236.749 114.258 236.625C112.917 239.083 111.575 241.54 110.233 243.997C110.44 244.111 110.647 244.225 110.854 244.34C111.9 241.676 115.197 240.284 115.135 236.995V236.995ZM151.582 260.006C151.867 256.899 152.11 254.261 152.428 250.803C148.705 256.211 148.705 256.211 151.582 260.006V260.006ZM20.2009 254.253C19.9645 257.289 19.7718 259.771 19.5786 262.253C19.8318 262.318 20.085 262.382 20.3382 262.446C21.2633 260.347 22.1878 258.247 23.1925 255.966C22.2028 255.399 21.4173 254.949 20.2009 254.253V254.253ZM37.6186 286.252C40.3963 279.997 40.6748 279.265 37.6186 276.136V286.252ZM96.8342 285.681L96.2396 285.634C95.6802 293.278 95.1213 300.922 94.5624 308.565C94.9206 308.59 95.2793 308.616 95.6375 308.64C96.036 300.987 96.4351 293.334 96.8342 285.681V285.681ZM136.638 202.715C138.727 200.51 140.513 198.692 142.202 196.787C142.547 196.398 142.526 195.685 142.674 195.121C142.072 195.114 141.437 194.975 140.874 195.118C137.175 196.057 136.558 198.905 136.638 202.715V202.715ZM95.8365 311.775C95.4616 311.797 95.0867 311.819 94.7124 311.84C95.2142 319.759 95.7159 327.679 96.2177 335.598C96.4669 335.583 96.7154 335.569 96.964 335.555C96.5886 327.629 96.2125 319.702 95.8365 311.775V311.775ZM156.501 221.609V233.716C158.397 229.702 161.197 225.695 156.501 221.609V221.609ZM137.502 194.196C139.009 193.528 140.171 193.013 141.462 192.441C140.152 189.366 138.944 186.53 137.502 183.148V194.196ZM113.668 230.606C114.023 230.807 114.378 231.007 114.734 231.207C117.032 227.841 119.397 224.515 121.549 221.058C121.825 220.615 120.998 219.486 120.385 217.915C117.835 222.733 115.751 226.67 113.668 230.606V230.606ZM86.5007 369.397C86.6305 360.814 84.3287 353.77 80.9818 352.611C82.8822 358.391 84.6915 363.893 86.5007 369.397V369.397ZM116.6 235.263C116.907 235.323 117.214 235.382 117.52 235.442C119.734 232.098 122.006 228.789 124.11 225.377C124.483 224.772 124.163 223.739 124.163 222.904L123.245 222.744C120.987 226.166 118.683 229.559 116.524 233.042C116.199 233.566 116.558 234.512 116.6 235.263V235.263ZM111.977 398.133C113.343 400.717 114.32 402.884 115.615 404.84C116.064 405.519 117.466 406.161 118.129 405.934C118.762 405.716 119.354 404.34 119.339 403.484C119.308 401.717 118.861 399.957 118.576 398.133H111.977ZM147.177 195.348C146.736 195.589 146.294 195.829 145.852 196.069C148.516 201.275 151.18 206.482 153.844 211.688C153.305 205.419 152.394 199.339 147.177 195.348V195.348ZM66.483 331.728C66.6676 331.677 66.8521 331.626 67.0367 331.575V318.574C65.0983 318.088 63.3127 317.639 61.4071 317.161C63.1293 322.103 64.8059 326.915 66.483 331.728V331.728ZM436.719 225.097C436.75 232.393 438.438 239.428 440.021 246.479C439.727 239.224 440.7 231.769 436.719 225.097V225.097ZM89.7518 198.733V214.426C95.4962 210.648 95.3278 203.535 89.7518 198.733V198.733ZM168.607 211.316C168.363 211.237 168.119 211.158 167.875 211.079C166.329 214.925 164.729 218.751 163.252 222.624C161.869 226.248 162.251 227.486 165.406 230.3C166.485 223.895 167.546 217.605 168.607 211.316V211.316ZM159.69 269.415C156.215 276.651 161.525 281.773 162.293 288.146C166.625 280.885 161.858 275.652 159.69 269.415V269.415ZM156.413 270.841C156.747 270.827 157.08 270.813 157.413 270.799C157.446 267.673 157.7 264.53 157.465 261.424C157.008 255.422 156.275 249.441 155.832 245.141C155.374 249.611 154.917 255.828 154.039 261.984C153.545 265.452 155.05 268.06 156.413 270.841V270.841ZM11.9402 267.791C12.1692 267.673 12.3976 267.556 12.6265 267.438V252.782C7.07594 254.052 5.93053 256.144 7.87358 260.041C9.17472 262.652 10.5808 265.21 11.9402 267.791V267.791ZM123.741 218.142C133.108 206.941 134.05 205.32 133.865 199.95C130.046 204.546 126.536 209.38 122.929 214.14C121.661 215.813 121.86 217.016 123.741 218.142V218.142ZM76.8448 233.09C79.702 230.4 81.9173 227.995 84.459 226.009C87.0619 223.975 87.435 221.358 87.4817 218.05C84.0686 219.984 80.8982 221.732 77.7936 223.59C77.3206 223.873 76.91 224.657 76.8869 225.226C76.7883 227.689 76.8448 230.158 76.8448 233.09V233.09ZM74.3164 225.516C71.8612 227.59 69.8581 229.163 68.0218 230.912C67.5402 231.371 67.2916 232.429 67.4249 233.117C67.9987 236.073 68.7543 238.994 69.4475 241.942C75.8874 238.143 74.4035 232.057 74.3164 225.516V225.516ZM153.365 270.231C151.047 284.045 148.829 297.265 146.611 310.485C147.122 309.791 147.437 309.036 147.633 308.252C150.115 298.393 152.454 288.495 155.118 278.685C155.974 275.536 154.898 273.195 153.365 270.231V270.231ZM65.3099 233.783C60.7975 240.118 59.6878 246.385 59.8562 253.909C62.6321 250.679 64.8826 248.124 67.039 245.492C67.4047 245.046 67.5875 244.223 67.475 243.649C66.8752 240.596 66.1554 237.567 65.3099 233.783V233.783ZM163.557 305.281C163.299 305.301 163.042 305.32 162.785 305.339C162.465 318.411 162.145 331.482 161.827 344.554C164.8 338.193 166.016 317.325 163.557 305.281V305.281ZM250.069 338.293C250.866 321.752 251.621 306.072 252.377 290.392C248.78 301.003 247.293 331.189 250.069 338.293V338.293ZM120.195 395.474C121.964 394.763 124.452 394.523 124.865 393.469C126.946 388.159 128.485 382.637 130.215 377.189C128.165 378.89 126.748 380.873 124.951 382.413C123.164 383.946 120.996 385.036 118.802 386.444C119.224 389.183 119.675 392.104 120.195 395.474V395.474ZM118.181 395.338C117.776 392.575 117.473 390.12 117.019 387.693C116.921 387.167 116.282 386.33 115.9 386.335C111.445 386.387 108.589 383.675 105.77 380.664C106.801 384.416 107.962 388.046 109.271 391.621C110.722 395.584 111.273 395.89 115.579 395.69C116.335 395.654 117.084 395.49 118.181 395.338V395.338ZM86.0595 228.58C85.838 228.342 85.6171 228.103 85.3962 227.864C82.7865 230.742 80.1663 233.612 77.5859 236.516C77.3714 236.758 77.323 237.25 77.3691 237.605C78.0571 242.88 78.7735 248.152 79.484 253.425C79.728 253.43 79.9719 253.435 80.2159 253.44C82.1636 245.154 84.1112 236.867 86.0595 228.58V228.58ZM199.013 320.792C199.337 320.651 199.662 320.51 199.986 320.37L195.363 296.287C195.075 296.331 194.786 296.374 194.498 296.418C193.528 301.206 192.509 305.983 191.63 310.787C191.455 311.741 191.445 313.123 191.996 313.741C194.199 316.213 196.652 318.461 199.013 320.792V320.792ZM158.836 261.015C159.311 259.666 159.56 259.153 159.672 258.611C161.084 251.775 162.238 244.873 163.967 238.118C164.927 234.368 163.356 231.987 161.123 229.283C158.142 239.606 157.097 249.788 158.836 261.015V261.015ZM38.1394 306.533C40.8254 302.506 43.4219 298.644 45.967 294.749C46.2358 294.337 46.4336 293.633 46.2693 293.221C44.9687 289.959 43.5724 286.734 42.0579 283.149C37.6977 291.652 37.0846 295.455 38.1394 306.533V306.533ZM276.16 252.682C277.015 244.68 277.597 236.636 278.81 228.688C279.847 221.892 281.634 215.211 283.009 208.463C283.148 207.778 282.734 206.981 282.576 206.236C281.888 206.605 280.947 206.807 280.57 207.38C279.955 208.316 279.661 209.478 279.312 210.571C274.911 224.375 275.869 238.615 276.16 252.682V252.682ZM70.323 354.896C70.7233 355.217 71.1235 355.539 71.5238 355.861C72.6709 354.368 73.7091 352.774 74.99 351.407C76.9827 349.282 77.2261 347.104 76.2225 344.382C74.8349 340.618 73.8348 336.711 72.664 332.867C72.0261 330.772 71.3779 328.681 70.7342 326.589C70.597 326.634 70.4597 326.679 70.323 326.723V354.896ZM62.6621 176.063C64.9639 180.489 74.4346 186.965 85.1875 191.465C82.7836 182.441 71.0491 174.417 62.6621 176.063V176.063ZM36.3129 322.871C35.7102 323.501 35.4114 323.665 35.3728 323.876C33.6645 333.202 31.9694 342.53 30.3222 351.867C30.2352 352.36 30.4312 353.067 30.76 353.441C32.4418 355.348 34.2112 357.18 36.3129 359.426V322.871ZM74.4623 240.021C73.0245 242.745 69.7832 244.008 70.4158 247.653C71.8571 255.959 73.2234 264.278 74.738 273.289C76.0628 268.476 77.2491 264.269 78.3507 260.041C78.5076 259.441 78.3063 258.721 78.1754 258.076C76.9919 252.26 75.7877 246.449 74.4623 240.021V240.021ZM86.9932 196.125C78.7308 203.313 77.6955 212.528 76.8719 222.536C80.4633 220.574 83.5806 218.928 86.6264 217.157C87.2026 216.822 87.7967 216.026 87.8664 215.387C88.547 209.17 88.6047 202.968 86.9932 196.125V196.125ZM15.7479 249.761C18.5855 250.84 21.2477 251.852 24.7047 253.166C25.6714 247.275 26.867 241.495 27.416 235.653C27.5654 234.06 25.7706 232.285 24.868 230.593C23.2981 231.653 21.2858 232.391 20.2384 233.832C16.7878 238.576 16.3512 244.281 15.7479 249.761V249.761ZM16.478 252.626C16.0305 252.821 15.5835 253.017 15.136 253.212C15.136 258.372 15.0408 263.536 15.234 268.689C15.2646 269.506 16.4452 270.617 17.3478 271.011C23.2462 273.586 29.1024 272.703 35.5862 270.474C32.248 266.021 29.1636 261.905 25.8853 257.532C24.1834 260.486 22.9578 262.76 21.5707 264.929C21.1629 265.567 20.2961 265.913 19.6403 266.392C19.2487 265.602 18.5999 264.838 18.5134 264.016C18.2031 261.062 18.1754 258.077 17.834 255.129C17.7325 254.253 16.9487 253.458 16.478 252.626V252.626ZM238.158 277.066C238.359 277.147 238.562 277.229 238.764 277.311C239.75 275.206 241.627 273.082 241.58 271.002C241.244 256.031 240.626 241.062 239.846 226.107C239.625 221.893 238.565 217.723 237.891 213.533C237.615 213.57 237.339 213.608 237.064 213.646C237.428 234.786 237.793 255.926 238.158 277.066V277.066ZM246.065 314.688C246.278 314.706 246.489 314.724 246.7 314.742C248.113 302.948 249.46 291.146 250.976 279.365C251.469 275.531 252.006 271.8 249.461 268.046C246.795 270.654 243.664 272.697 243.941 277.117C244.216 281.516 244.167 285.935 244.428 290.336C244.909 298.457 245.513 306.571 246.065 314.688V314.688ZM33.0024 393.094C33.6714 391.111 34.3589 389.821 34.5221 388.467C35.3699 381.446 36.1797 374.418 36.787 367.372C36.971 365.235 37.6054 362.817 34.9731 361.231C33.1045 360.104 31.5542 358.45 29.708 356.901C27.9028 369.246 27.9368 380.997 33.0024 393.094V393.094ZM192.259 161.992C186.291 163.145 181.442 165.538 176.889 168.59C176.412 168.909 176.092 169.643 175.944 170.244C174.022 178.075 172.461 185.956 172.967 194.093C179.306 183.545 185.646 172.996 192.259 161.992V161.992ZM148.071 84.8002C141.456 89.9709 120.579 116.577 118.168 122.83C121.883 122.345 125.554 121.755 129.25 121.436C130.767 121.305 131.204 120.764 131.705 119.354C134.074 112.688 136.334 105.947 139.311 99.5474C141.666 94.4847 145.005 89.8808 148.071 84.8002V84.8002ZM166.362 237.389C164.619 245.62 163.497 253.327 161.269 260.699C159.327 267.127 162.085 271.924 164.607 277.211C167.599 268.151 170.514 259.352 173.385 250.539C173.541 250.059 173.503 249.354 173.256 248.929C171.099 245.231 168.874 241.573 166.362 237.389V237.389ZM367.901 179.34C367.463 179.375 367.024 179.411 366.585 179.445C364.23 201.113 361.874 222.781 359.518 244.449C359.798 244.491 360.078 244.533 360.358 244.576C360.473 244.238 360.6 243.905 360.699 243.563C363.885 232.588 367.075 221.614 370.238 210.631C370.447 209.904 370.554 209.109 370.519 208.354C370.218 201.826 369.994 195.289 369.489 188.775C369.244 185.608 368.448 182.483 367.901 179.34V179.34ZM41.7949 267.301C42.0965 267.481 42.3987 267.661 42.6998 267.84C43.3578 266.771 44.3885 265.775 44.6123 264.622C45.9607 257.666 47.4827 250.714 48.2504 243.684C49.0324 236.512 48.8208 229.271 45.5443 222.538C45.0489 221.521 44.2979 220.628 43.3671 219.229C38.2208 235.608 38.576 251.411 41.7949 267.301V267.301ZM469.045 320.874C469.019 321.205 468.918 321.671 468.957 322.124C470.319 337.743 472.267 353.268 476.97 368.297C477.764 370.832 479.017 373.259 480.34 375.573C480.817 376.405 482.126 376.76 483.054 377.332C483.562 376.456 484.407 375.62 484.522 374.695C485.156 369.65 485.67 364.586 486.061 359.516C486.121 358.735 485.521 357.681 484.901 357.104C479.693 352.257 476.273 346.276 474.164 339.603C472.207 333.41 470.718 327.069 469.045 320.874V320.874ZM130.495 158.955C128.559 147.427 128.379 135.923 130.588 123.734C126.09 124.433 122.034 124.947 118.04 125.767C117.065 125.967 115.934 126.999 115.491 127.94C113.157 132.885 114.84 137.361 117.704 141.442C121.815 147.299 126.135 153.008 130.495 158.955V158.955ZM197.657 157.647C197.889 157.964 198.119 158.28 198.35 158.596C201.68 158.596 205.018 158.744 208.339 158.568C217.818 158.065 222.896 153.633 224.782 144.337C225.125 142.65 225.315 140.922 225.45 139.204C225.766 135.172 222.951 132.856 219.142 134.308C217.052 135.104 214.809 136.294 213.405 137.958C207.987 144.378 202.88 151.062 197.657 157.647V157.647ZM68.5385 247.664C66.1964 250.282 64.657 252.404 62.7221 254.065C60.1481 256.274 59.6169 258.859 60.1308 262.002C61.6793 271.478 63.0497 280.984 64.6911 290.443C65.4962 295.084 66.7478 299.647 67.7974 304.245C69.3656 298.134 70.5156 292.139 71.5797 286.129C72.0279 283.597 72.8243 280.974 72.5504 278.493C71.4459 268.49 69.9856 258.527 68.5385 247.664V247.664ZM118.365 215.328C114.024 210.988 109.851 206.328 105.147 202.289C102.151 199.716 98.4463 197.91 94.8964 196.074C93.5624 195.384 91.7698 195.582 90.4474 195.408C92.3414 199.459 94.3808 203.044 95.7182 206.873C97.4646 211.874 97.3377 212.155 92.6949 214.795C89.8677 216.403 88.7425 218.362 89.4767 221.826C99.0068 215.082 106.016 219.185 111.878 227.607C114.096 223.409 116.058 219.695 118.365 215.328V215.328ZM15.5916 273.601C15.7969 275.528 15.9151 277.225 16.166 278.902C17.5283 288.005 18.7983 297.134 23.0899 305.475C24.5017 308.219 25.0842 308.43 27.1911 306.192C32.1396 300.936 36.1335 295.304 35.3803 287.409C34.9575 282.975 35.3042 278.468 35.3042 273.757C28.5655 275.436 22.219 275.831 15.5916 273.601V273.601ZM149.328 192.572C151.064 195.604 152.994 197.914 153.76 200.561C154.894 204.485 155.498 208.629 155.779 212.716C156.055 216.745 158.613 219.363 160.391 223.158C160.892 221.786 161.174 221.181 161.335 220.545C164.581 207.718 167.926 194.913 170.955 182.035C171.589 179.345 171.048 176.38 171.048 173.542C170.79 173.417 170.532 173.292 170.274 173.167C163.196 179.725 156.118 186.282 149.328 192.572V192.572ZM47.3639 264.015C47.511 264.196 47.6581 264.377 47.8051 264.558C50.3653 262.435 52.8938 260.274 55.4966 258.205C57.1173 256.917 57.7799 255.437 57.7569 253.281C57.6871 246.655 58.7327 240.156 62.5398 234.597C64.2274 232.133 64.3393 230.136 63.3455 227.526C60.6273 220.384 57.3935 213.569 52.1515 207.885C49.9074 205.451 49.0128 205.483 47.4481 208.29C46.3771 210.211 45.5633 212.274 44.6134 214.264C43.9184 215.721 44.3862 216.767 45.2455 218.128C46.9665 220.853 48.6097 223.746 49.5965 226.794C51.7097 233.318 51.4017 240.086 50.427 246.774C49.5855 252.547 48.3986 258.27 47.3639 264.015V264.015ZM133.345 269.072C139.498 266.705 141.886 261.809 145.01 257.594C145.964 256.307 145.984 255.316 145.107 254.003C140.898 247.701 136.787 241.333 132.586 235.024C130.734 232.243 128.75 229.55 126.719 226.667C124.346 230.289 122.232 233.71 119.902 236.976C118.921 238.353 118.956 239.359 119.645 240.851C122.567 247.197 125.209 253.675 128.177 259.999C129.659 263.156 131.625 266.085 133.345 269.072V269.072ZM386.137 406.063C395.407 401.478 412.304 363.531 410.903 351.474C410.613 351.835 410.363 352.108 410.155 352.411C402.55 363.409 393.713 373.194 382.595 380.793C381.906 381.264 381.441 382.715 381.566 383.613C382.147 387.797 382.895 391.961 383.737 396.102C384.397 399.349 385.281 402.551 386.137 406.063V406.063ZM57.7269 259.641C54.4256 262.275 51.573 264.655 48.608 266.885C45.4278 269.278 43.453 275.053 44.2991 279.034C46.782 290.708 53.1187 300.611 58.8383 310.776C59.862 312.596 61.8298 313.993 63.6114 315.224C64.3629 315.743 65.7604 315.328 66.8643 315.338C66.8718 314.454 67.0776 313.516 66.8568 312.694C62.218 295.435 58.596 278.001 57.7269 259.641V259.641ZM79.916 348.893C80.3053 348.848 80.7523 348.848 81.1733 348.742C85.1817 347.73 85.1557 347.731 86.1097 351.888C87.589 358.337 88.908 364.832 90.6602 371.207C92.5513 378.087 95.0734 384.774 100.424 389.845C102.196 391.524 104.385 392.763 106.616 394.371C100.029 369.638 94.4286 345.425 92.7768 320.961C88.6174 329.997 84.297 339.379 79.916 348.893V348.893ZM102.195 297.454C99.4377 301.63 97.4917 305.209 98.0195 309.782C98.4255 313.299 98.1602 316.889 98.4434 320.426C99.6101 334.969 100.801 349.511 102.135 364.039C102.669 369.861 104.457 375.334 108.22 379.952C110.262 382.458 112.77 384.185 116.535 383.886C111.763 355.124 107.039 326.651 102.195 297.454V297.454ZM174.878 251.733C174.436 252.776 174.162 253.268 174.013 253.795C171.767 261.731 169.599 269.688 167.266 277.597C166.564 279.974 167.097 281.801 168.531 283.697C174.036 290.98 179.435 298.344 184.916 305.646C186.161 307.304 187.575 308.835 189.304 310.891C190.722 303.948 192.028 297.6 193.297 291.244C193.385 290.8 193.263 290.275 193.118 289.827C188.806 276.502 182.462 264.154 174.878 251.733V251.733ZM88.19 265.742C92.2399 265.794 101.094 258.514 102.617 253.988C105.091 246.632 107.666 239.31 110.113 231.945C110.369 231.176 110.39 229.928 109.939 229.394C108.09 227.207 106.236 224.921 103.978 223.207C99.7191 219.976 92.417 221.056 89.0153 225.119C88.6687 225.534 88.4686 226.126 88.3474 226.668C86.0658 236.868 83.8194 247.075 81.5361 257.274C80.7154 260.941 84.4181 265.694 88.19 265.742V265.742ZM144.028 198.264C139.271 203.307 134.019 207.736 132.381 214.805C132.042 216.271 131.382 217.781 130.48 218.975C127.698 222.657 128.687 225.505 131.281 229.035C136.995 236.811 142.117 245.022 147.753 253.461C149.926 248.637 153.351 244.767 153.608 239.353C153.872 233.796 154.54 228.26 154.923 222.707C155.034 221.1 155.272 219.214 154.599 217.889C151.262 211.323 147.64 204.903 144.028 198.264V198.264ZM485.19 354.64C485.521 354.492 485.852 354.343 486.184 354.195C486.238 353.477 486.318 352.759 486.344 352.039C487.107 331.064 485.994 310.198 482.495 289.492C481.601 284.203 480.389 278.965 479.163 273.741C478.959 272.872 477.94 271.593 477.275 271.58C476.334 271.561 474.922 272.313 474.505 273.137C473.395 275.333 472.17 277.693 471.95 280.077C471.155 288.661 470.195 297.29 470.338 305.885C470.554 318.813 472.73 331.53 478.261 343.371C480.116 347.34 482.855 350.896 485.19 354.64V354.64ZM180.965 405.081C184.23 404.248 185.245 401.964 186.16 399.839C196.086 376.791 201.6 352.869 200.163 327.611C200.123 326.896 199.99 325.962 199.527 325.532C196.609 322.824 193.587 320.23 190.299 317.332C185.945 346.509 181.289 375.309 180.965 405.081V405.081ZM434 231.107C426.842 248.229 423.892 266.239 421.562 284.377C419.225 302.564 417.022 320.767 414.761 338.964C415.95 338.002 416.622 336.876 417.199 335.704C426.327 317.191 433.227 297.913 437.329 277.644C439.343 267.697 440.649 257.91 437.347 247.87C435.58 242.497 435.075 236.708 434 231.107V231.107ZM120.31 408.661C118.445 411.364 117.373 410.434 116.385 409.152C115.04 407.404 113.484 405.762 112.45 403.843C110.229 399.726 107.725 396.193 102.774 394.98C101.211 394.598 99.7785 393.253 98.538 392.082C96.6053 390.257 94.8872 388.204 92.8276 385.976C93.0197 386.809 93.0629 387.361 93.2705 387.842C95.476 392.94 97.67 398.045 99.9406 403.115C103.967 412.109 108.75 420.839 111.93 430.121C116.241 442.707 112.966 451.538 102.622 459.868C102.417 460.034 102.294 460.303 101.688 461.132C105.22 465.108 108.504 469.516 112.503 473.132C117.434 477.588 122.3 475.986 123.867 469.5C124.8 465.64 125.089 461.514 124.956 457.531C124.727 450.633 124.045 443.743 123.37 436.867C122.481 427.811 121.416 418.772 120.31 408.661V408.661ZM4.58729 260.801C4.20779 262.767 3.7164 264.718 3.46667 266.7C2.05018 277.939 3.80695 288.91 6.39654 299.798C10.4909 317.013 16.6297 333.374 26.657 348.098C27.0371 348.656 27.5446 349.128 28.2806 349.969C28.5211 348.526 28.6497 347.583 28.8394 346.652C30.9215 336.415 33.2879 326.226 34.9922 315.926C35.9074 310.393 35.6906 304.672 35.9842 299.035C32.7025 302.713 30.076 306.34 27.4518 309.97C26.1143 311.819 24.6828 312.057 23.4526 309.967C21.5182 306.679 19.3289 303.462 17.9505 299.941C14.7657 291.804 14.242 283.114 13.4357 274.507C13.3521 273.612 13.19 272.363 12.5937 271.936C8.73409 269.169 6.57821 265.307 4.58729 260.801V260.801ZM99.6886 262.112C96.7385 263.864 93.5728 266.266 90.0183 267.718C85.8386 269.426 82.49 267.278 79.9892 263.075C77.5606 272.59 75.2005 281.175 75.4047 290.395C75.5402 296.537 74.9312 303.037 72.9483 308.788C71.0255 314.365 70.9563 319.286 72.822 324.568C73.0129 325.109 73.1277 325.677 73.2846 326.23C75.0402 332.42 76.797 338.61 78.7164 345.375C79.574 343.972 80.1421 343.21 80.5383 342.366C84.0836 334.819 87.7344 327.316 91.0414 319.665C92.0675 317.291 92.3668 314.522 92.6009 311.898C93.5456 301.307 93.9719 290.655 95.3191 280.118C96.122 273.835 98.2819 267.727 99.6886 262.112V262.112ZM205.907 419.858C207.308 417.543 208.394 415.864 209.365 414.122C218.685 397.418 223.955 379.298 227.797 360.709C231.636 342.136 233.376 323.29 234.714 304.404C235.018 300.102 235.166 295.789 235.386 291.482C221.027 316.238 202.562 397.098 205.907 419.858V419.858ZM214.697 233.151C214.452 233.154 214.207 233.156 213.961 233.158C213.217 234.698 212.438 236.221 211.735 237.78C204.318 254.239 200.015 271.648 196.16 289.188C195.944 290.168 196.092 291.283 196.291 292.292C198.176 301.88 200.089 311.462 202.06 321.033C202.256 321.987 202.653 323.16 203.361 323.704C206.509 326.122 210.479 325.517 212.691 322.211C213.791 320.567 214.792 318.657 215.137 316.741C216.459 309.39 218.292 302.006 218.462 294.6C218.732 282.813 218.051 270.985 217.34 259.2C216.815 250.496 215.603 241.833 214.697 233.151V233.151ZM52.2611 366.162C56.5722 366.128 60.5766 364.939 63.8779 362.35C65.7679 360.869 68.2629 358.379 68.1642 356.463C67.8303 349.947 68.0708 343.309 65.2528 337.022C59.8424 324.948 54.8951 312.668 49.6328 300.527C48.3663 297.604 46.6118 297.545 44.8787 300.252C43.487 302.426 42.1478 304.704 41.2527 307.109C40.0029 310.467 38.3067 313.997 38.3453 317.436C38.4901 330.205 39.3114 342.966 39.7889 355.734C40.0589 362.964 40.567 363.726 47.7244 365.487C49.2026 365.851 50.7471 365.943 52.2611 366.162V366.162ZM194.515 285.877C194.924 284.408 195.248 283.357 195.511 282.291C199.625 265.607 204.646 249.202 211.506 233.44C213.163 229.632 213.812 226.156 212.843 222.163C211.713 217.507 211.071 212.732 209.882 208.095C209.05 204.848 207.363 204.348 204.513 206.056C203.451 206.693 202.438 207.455 201.522 208.29C189.593 219.165 182.195 232.959 176.365 247.726C176.066 248.483 176.507 249.726 176.952 250.555C180.307 256.81 183.922 262.932 187.11 269.269C189.753 274.522 191.923 280.013 194.515 285.877V285.877ZM128.412 393.341C131.721 391.558 134.613 390.247 137.248 388.538C148.496 381.241 155.007 370.445 159.216 358.058C159.88 356.104 160.309 353.94 160.248 351.891C159.731 334.493 159.516 317.097 161.54 299.779C162.377 292.619 159.183 286.564 157.273 280.074C156.75 280.968 156.504 281.848 156.29 282.735C149.043 312.665 141.859 342.612 134.509 372.517C132.847 379.279 130.608 385.899 128.412 393.341V393.341ZM100.313 457.935C107.174 453.032 111.158 446.94 110.817 438.627C110.463 429.989 107.074 422.192 103.269 414.649C96.2633 400.757 89.8389 386.64 84.9989 371.833C82.9543 365.576 80.8336 359.344 78.5918 352.634C77.0115 353.762 75.7225 354.691 74.4225 355.606C71.4846 357.673 70.5618 360.317 70.9799 364C73.1306 382.939 76.7952 401.525 82.9889 419.582C87.5117 432.767 92.9464 445.532 100.313 457.935V457.935ZM178.958 405.151C179.064 404.363 179.173 403.908 179.182 403.45C179.739 374.385 183.257 345.633 188.213 317.026C188.409 315.9 188.018 314.385 187.35 313.443C183.682 308.276 179.783 303.274 176.081 298.131C172.789 293.558 169.65 288.874 166.266 283.983C164.65 290.227 164.445 296.07 165.692 302.261C169.13 319.321 169.017 336.383 164.447 353.335C163.601 356.471 163.653 359.9 163.639 363.195C163.628 365.965 164.121 368.738 164.397 371.509C165.384 381.462 167.991 390.921 172.987 399.649C174.329 401.994 175.745 404.267 178.958 405.151V405.151ZM132.992 124.092C132.685 125.587 132.361 126.784 132.206 128.003C131.927 130.193 131.667 132.39 131.543 134.593C130.459 153.949 135.522 172.031 143.007 189.6C144.49 193.079 145.66 193.257 148.396 190.65C153.818 185.484 158.891 179.836 164.857 175.392C170.04 171.531 171.134 167.518 169.689 161.531C167.367 151.918 164.646 142.576 158.073 134.913C151.523 127.278 142.923 124.288 132.992 124.092V124.092ZM242.086 278.728C238.414 282.577 237.698 284.714 237.606 289.454C237.556 292.046 237.354 294.635 237.243 297.226C236.178 321.941 233.631 346.471 227.819 370.568C223.364 389.044 217.537 406.985 206.551 422.813C206.231 423.274 205.814 423.843 205.839 424.341C206.159 430.834 206.884 437.279 211.416 442.406C215.231 446.723 220.236 446.686 223.784 442.201C225.84 439.601 227.603 436.619 228.833 433.542C234.99 418.149 237.33 401.862 239.349 385.558C241.096 371.449 242.443 357.287 243.814 343.134C244.432 336.755 245.265 330.312 244.964 323.947C244.407 312.159 243.029 300.412 242.125 288.638C241.873 285.353 242.086 282.032 242.086 278.728V278.728ZM133.501 121.025C134.245 121.224 134.51 121.324 134.782 121.363C135.828 121.51 136.877 121.631 137.923 121.773C147.889 123.132 156.143 127.514 162.197 135.683C168.698 144.454 171.153 154.654 172.48 165.239C172.596 166.165 172.797 167.08 172.958 168C173.241 167.996 173.524 167.993 173.806 167.991C174.126 166.746 174.543 165.519 174.75 164.256C176.044 156.4 177.485 148.56 178.511 140.668C180.382 126.273 181.831 111.796 179.819 97.3277C179.065 91.9147 177.484 86.3868 175.099 81.4874C171.878 74.8721 164.886 73.7127 159.099 78.1809C145.025 89.0474 138.199 104.268 133.501 121.025V121.025ZM177.098 164.658C182.351 162.771 187.478 161.016 192.527 159.06C193.913 158.522 195.382 157.627 196.27 156.475C201.132 150.17 205.554 143.505 210.671 137.421C214.186 133.241 218.515 129.627 224.984 131.723C224.984 131.176 225.014 130.807 224.977 130.444C224.91 129.776 224.832 129.107 224.71 128.447C222.8 118.203 218.681 108.848 213.089 100.133C206.905 90.4937 199.549 81.9618 189.431 76.2002C182.551 72.2813 175.362 71.1992 169.802 73.1805C176.569 77.2569 179.632 80.9414 181.504 88.3445C182.51 92.3204 183.157 96.4522 183.392 100.547C184.237 115.204 182.033 129.676 180.253 144.156C179.401 151.089 178.139 157.972 177.098 164.658V164.658ZM6.28811 252.544C7.78707 251.905 8.8875 251.167 10.0727 250.989C12.3941 250.64 12.9749 249.403 13.3457 247.185C13.99 243.335 14.7899 239.37 16.4192 235.87C17.7792 232.949 20.0954 230.24 22.5829 228.144C25.2452 225.899 28.2494 227.099 29.3977 230.433C29.9802 232.125 30.4791 234.063 30.238 235.78C29.4277 241.545 28.2604 247.259 27.2493 252.997C27.093 253.885 26.6086 255.13 27.0054 255.633C29.6307 258.964 32.455 262.136 35.4564 265.643C35.5516 264.511 35.6473 263.682 35.6877 262.852C36.1041 254.22 36.212 245.56 36.9958 236.961C38.0229 225.7 40.5606 214.786 46.6684 205.013C48.4868 202.103 48.7302 202.05 51.4386 204.21C58.4853 209.83 62.2036 217.569 65.1219 225.81C65.5176 226.928 65.8953 228.052 66.3371 229.335C68.2848 227.854 69.7503 226.373 71.5146 225.488C73.9882 224.246 74.6924 222.373 74.9566 219.799C75.9082 210.517 78.0485 201.643 85.1984 194.312C81.0758 192.033 77.1799 189.829 73.2384 187.711C68.4417 185.134 64.1991 181.949 60.9059 177.516C60.3713 176.797 58.6595 176.212 57.8895 176.529C53.3055 178.422 48.4072 179.984 44.4064 182.787C27.4743 194.653 15.5927 210.538 8.84771 230.109C6.39711 237.219 5.23267 244.607 6.28811 252.544V252.544ZM552.624 368.849C555.098 368.545 557.605 368.405 560.04 367.91C571.888 365.504 576.366 358.699 573.994 346.875C573.919 346.498 573.872 346.112 573.756 345.747C569.171 331.386 564.606 317.018 559.952 302.679C559.426 301.059 558.499 299.534 557.567 298.089C553.787 292.225 548.76 291.578 544.054 296.716C541.356 299.659 539.009 303.044 537.079 306.548C532.399 315.042 528.205 323.804 523.495 332.282C521.829 335.281 521.547 338.054 522.097 341.306C525.23 359.789 535.033 368.649 552.624 368.849V368.849ZM371.118 215.713L370.201 215.704C363.277 236.618 358.079 257.858 356.401 279.968C355.086 297.297 352.708 314.542 351.002 331.845C350.243 339.548 347.848 347.096 348.954 354.988C350.072 362.964 351.846 370.697 356.581 377.395C360.823 383.395 366.393 385.247 373.207 383.152C379.034 381.362 379.174 381.083 378.281 374.987C373.674 343.568 371.462 311.954 371.016 280.225C370.758 261.966 371.066 243.699 371.117 225.436C371.126 222.195 371.118 218.954 371.118 215.713V215.713ZM180.54 407.963C182.138 416.621 183.592 425.213 185.362 433.74C186.087 437.226 188.557 438.345 191.371 436.157C197.413 431.459 203.107 426.939 203.128 417.57C203.154 406.121 204.858 394.624 206.494 383.242C211.451 348.743 221.612 315.701 235.107 283.636C235.506 282.687 235.814 281.631 235.855 280.612C236.065 275.43 236.325 270.242 236.289 265.058C236.168 247.669 235.938 230.28 235.728 212.891C235.687 209.507 233.76 208.357 230.723 210.042C229.325 210.817 227.933 211.878 226.991 213.145C223.73 217.534 220.623 222.042 217.575 226.584C217.117 227.268 217.114 228.394 217.203 229.285C217.624 233.488 218.374 237.669 218.598 241.88C219.327 255.594 220.04 269.311 220.449 283.037C220.82 295.458 220.062 307.834 216.84 319.91C214.627 328.206 211.44 329.941 203.202 327.832C203.124 327.812 203.022 327.888 202.769 327.975C202.723 328.545 202.597 329.189 202.632 329.825C203.355 342.774 201.891 355.514 199.014 368.123C196.622 378.611 194.146 389.075 189.262 398.764C187.424 402.409 185.25 405.797 180.54 407.963V407.963ZM228.568 142.494C228.348 143.592 228.13 144.689 227.909 145.787C226.037 155.076 218.779 161.304 209.278 161.584C206.025 161.679 202.754 161.495 199.506 161.247C197.09 161.063 195.39 161.586 194.07 163.903C187.467 175.493 180.645 186.958 174.064 198.561C172.821 200.753 171.987 203.308 171.54 205.799C170.012 214.296 168.727 222.836 167.39 231.366C167.231 232.385 166.925 233.662 167.359 234.445C169.601 238.489 172.061 242.412 174.567 246.579C177.405 240.424 179.865 234.603 182.727 228.987C187.653 219.321 193.474 210.235 202.87 204.269C210.35 199.519 209.215 200.577 211.677 207.231C213.558 212.313 214.828 217.622 216.472 223.176C221.367 215.569 226.638 208.598 235.596 204.655C233.631 184.159 235.02 162.933 228.568 142.494V142.494ZM114.61 126.28C109.331 128.042 104.872 129.408 100.501 131.013C89.0188 135.229 77.7924 139.979 68.4365 148.16C63.552 152.432 59.5165 157.409 59.2547 164.203C59.137 167.253 59.7599 170.584 61.0541 173.307C61.5536 174.359 64.8393 174.134 66.8671 174.402C76.7018 175.697 83.5126 180.846 87.0665 190.18C87.4016 191.059 87.7044 191.951 87.9645 192.677C103.223 192.504 110.428 204.507 119.298 212.8C124.297 207.436 129.215 202.205 134.054 196.9C134.632 196.267 134.995 195.26 135.085 194.386C135.774 187.694 134.692 181.182 132.879 174.764C129.622 163.233 123.519 153.139 116.963 143.277C113.636 138.272 110.847 133.173 114.61 126.28V126.28ZM98.3246 297.721C98.5714 297.773 98.8188 297.825 99.0657 297.876C99.538 296.477 99.9245 295.04 100.514 293.692C100.865 292.892 101.534 292.232 102.06 291.51C102.515 292.244 102.977 292.973 103.417 293.715C103.512 293.875 103.545 294.078 103.577 294.267C107.312 316.129 111.079 337.987 114.758 359.86C116.075 367.687 117.178 375.551 118.378 383.399C118.646 383.591 118.914 383.783 119.182 383.975C121.231 381.944 123.854 380.234 125.208 377.812C128.049 372.735 130.912 367.489 132.556 361.952C141.569 331.58 146.718 300.43 150.668 269.044C151.196 264.846 149.654 261.899 147.507 258.634C146.917 259.386 146.5 260.025 145.979 260.565C142.52 264.151 139.189 267.88 135.517 271.234C132.654 273.851 132.242 273.585 130.794 270.084C129.694 267.423 128.663 264.731 127.477 262.11C124.286 255.058 121.029 248.037 117.62 240.615C113.699 245.345 110.075 249.433 106.806 253.79C105.252 255.861 103.816 258.325 103.298 260.814C101.718 268.42 100.455 276.102 99.3742 283.798C98.7283 288.397 98.655 293.077 98.3246 297.721V297.721ZM68.9774 361.905L68.185 361.463C65.754 364.621 63.0698 367.618 60.9342 370.965C51.3619 385.964 40.9528 400.337 29.9923 414.354C26.1403 419.28 23.2346 425.065 20.577 430.775C17.8645 436.6 16.8345 442.923 18.8323 449.306C22.1475 459.896 30.0373 465.32 40.372 467.424C53.9607 470.19 67.5096 469.042 80.9293 465.99C86.9137 464.628 92.7019 462.687 98.1083 459.294C89.7783 444.211 83.3176 428.557 78.7279 412.136C74.1226 395.658 71.0664 378.877 68.9774 361.905V361.905ZM305.833 333.917C305.291 332.625 304.824 331.883 304.667 331.081C302.69 320.915 300.088 310.815 298.963 300.553C297.068 283.274 296.437 265.858 294.652 248.564C293.571 238.088 291.422 227.713 289.515 217.337C289.077 214.953 287.66 212.749 286.693 210.462C286.356 210.505 286.019 210.549 285.681 210.592C284.285 216.941 282.378 223.228 281.595 229.652C279.783 244.517 278.267 259.428 277.099 274.358C276.06 287.646 275.879 300.873 277.717 314.259C279.721 328.871 279.836 343.742 280.721 358.503C280.785 359.58 280.419 360.683 280.253 361.774C279.867 361.775 279.482 361.776 279.097 361.778C276.792 355.27 276.749 348.276 275.331 340.907C275.13 341.9 274.997 342.246 275 342.592C275.152 362.967 275.187 383.374 278.285 403.557C279.261 409.912 281.318 416.291 284.001 422.144C287.216 429.157 293.421 430.313 299.407 425.387C302.599 422.761 305.62 419.463 307.554 415.846C318.749 394.903 324.675 372.719 321.849 348.755C321.147 342.796 319.443 337.082 316.297 331.905C314.341 328.685 312.712 328.43 309.762 330.715C308.568 331.638 307.42 332.62 305.833 333.917V333.917ZM380.775 379.273C381.629 378.806 381.981 378.658 382.282 378.441C383.14 377.825 384.003 377.21 384.82 376.542C395.97 367.427 404.528 356.111 412.248 344.094C412.788 343.254 413.037 342.136 413.142 341.118C415.243 320.661 417.162 300.185 419.415 279.745C421.382 261.913 424.933 244.435 432.521 227.998C432.977 227.01 433.288 225.72 433.073 224.696C430.508 212.487 428.237 200.192 424.999 188.16C423.512 182.633 420.603 177.274 417.38 172.486C413.142 166.188 406.576 164.629 400.141 167.255C395.808 169.024 392.309 172.048 389.975 175.915C385.171 183.875 380.829 192.114 376.353 200.269C373.75 205.01 372.585 210.023 373.367 215.498C373.757 218.237 373.65 221.06 373.626 223.844C373.509 237.202 373.369 250.558 373.191 263.915C372.835 290.567 374.289 317.139 376.795 343.657C377.905 355.402 379.403 367.11 380.775 379.273V379.273ZM521.415 332.139C526.082 323.259 530.201 315.016 534.715 306.994C537.152 302.664 540.17 298.644 543.127 294.633C544.18 293.203 545.712 292.037 547.22 291.05C550.846 288.68 554.718 289.031 557.175 292.593C559.54 296.023 561.564 299.859 562.902 303.801C567.783 318.181 572.36 332.666 576.961 347.139C579.899 356.38 575.957 365.066 566.576 368.605C555.358 372.839 544.109 372.169 533.388 366.601C527.193 363.384 523.957 357.709 521.988 351.281C520.934 347.836 520.246 344.28 519.296 340.379C517.391 343.228 515.792 345.928 513.887 348.388C511.658 351.265 509.348 354.126 506.741 356.65C501.538 361.689 495.544 363.578 488.664 359.912C487.372 367.127 486.133 374.049 484.895 380.972C484.542 381.058 484.19 381.146 483.837 381.233C482.938 380.362 481.928 379.579 481.155 378.607C474.688 370.488 471.092 361.017 469.723 350.931C468.044 338.568 467.11 326.093 466.176 313.643C464.824 295.622 464.087 277.532 459.173 259.99C458.37 257.121 457.18 254.362 456.168 251.551C455.717 251.561 455.265 251.57 454.814 251.58C452.052 258.746 449.291 265.912 446.529 273.078C446.184 273.123 445.838 273.168 445.493 273.212C444.366 270.913 443.238 268.613 441.836 265.754C441.44 267.75 441.141 269.264 440.839 270.777C435.511 297.403 427.613 323.103 413.908 346.775C412.62 349 412.417 351.887 411.87 354.501C409.191 367.318 406.097 379.997 400.066 391.749C396.704 398.299 392.57 404.282 387.154 409.315C385.088 411.235 384.45 411.066 383.917 408.262C382.321 399.873 380.823 391.465 379.25 382.862C377.568 383.483 375.986 384.133 374.362 384.654C366.214 387.27 358.801 384.802 353.814 377.814C350.252 372.822 348.865 367.045 347.882 361.129C347.788 360.566 347.697 360.002 347.589 359.441C347.578 359.382 347.467 359.341 347.064 359.032C344.153 375.219 341.254 391.23 336.79 406.871L335.664 406.899C335.329 405.821 334.818 404.763 334.683 403.66C331.963 381.336 331.944 358.948 333.837 336.589C336.302 307.476 339.518 278.425 341.768 249.298C342.927 234.282 342.698 219.159 343.096 204.084C342.632 203.97 342.168 203.858 341.705 203.745C340.897 205.638 339.757 207.46 339.337 209.435C337.261 219.204 335.152 228.976 333.475 238.817C330.652 255.376 329.136 272.177 324.158 288.324C323.168 291.532 321.981 294.684 320.757 297.813C320.448 298.602 319.649 299.2 319.076 299.886C318.52 299.17 317.764 298.534 317.441 297.725C313.854 288.757 312.525 279.349 312.666 269.776C312.865 256.226 313.53 242.684 313.721 229.134C313.829 221.444 313.55 213.657 310.8 206.379C309.266 202.318 307.078 198.339 304.429 194.906C300.808 190.217 296.435 190.378 293.029 195.231C290.69 198.563 289.153 202.477 287.431 206.21C287.101 206.925 287.345 208.122 287.717 208.913C293.573 221.377 295.852 234.701 297.032 248.246C298.701 267.391 300.033 286.566 301.757 305.706C302.29 311.618 303.618 317.46 304.625 323.327C304.769 324.167 305.064 325.01 305.44 325.779C306.883 328.737 308.935 329.036 311.246 326.673C313.617 324.25 313.78 324.236 315.706 326.954C323.582 338.067 325.896 350.686 325.163 363.936C324.037 384.305 318.006 403.172 306.647 420.18C304.757 423.01 302.281 425.6 299.62 427.732C293.432 432.689 286.524 431.575 282.937 424.504C280.375 419.454 278.775 413.775 277.575 408.199C273.467 389.116 272.871 369.689 272.855 350.261C272.841 333.054 273.513 315.841 273.221 298.642C273.112 292.2 271.461 285.712 269.938 279.383C267.717 270.152 265.015 261.035 262.423 251.896C261.946 250.215 261.018 248.662 260.298 247.049C259.994 247.086 259.689 247.123 259.385 247.159C258.112 252.937 256.924 258.736 255.545 264.488C253.37 273.557 253.811 282.748 253.682 291.968C253.453 308.391 252.573 324.806 251.936 341.224C251.888 342.445 251.601 343.657 251.338 345.478C247.847 342.829 248.767 338.885 246.872 335.683C246.274 341.195 245.829 346.319 245.147 351.412C242.124 373.97 239.401 396.578 235.75 419.035C234.605 426.077 231.004 432.746 228.291 439.491C227.566 441.296 226.14 442.919 224.743 444.335C220.409 448.727 214.737 448.603 210.533 444.082C207.018 440.301 205.474 435.544 204.231 430.67C203.97 429.652 203.775 428.617 203.473 427.236C201.339 429.49 199.489 431.641 197.431 433.568C194.91 435.928 192.177 438.058 189.607 440.369C187.936 441.871 186.91 441.546 185.838 439.639C182.535 433.76 180.802 427.403 179.999 420.78C179.56 417.162 179.501 413.498 179.153 409.866C179.075 409.043 178.702 408.065 178.128 407.504C175.772 405.2 172.805 403.373 170.939 400.747C165.647 393.305 163.518 384.596 162.111 375.715C161.531 372.055 161.159 368.362 160.611 364.048C159.171 366.685 158.037 368.839 156.833 370.953C150.264 382.488 140.831 390.708 128.478 395.612C127.463 396.014 126.614 397.079 125.924 398.011C121.938 403.388 122.404 409.177 123.602 415.455C126.269 429.428 128.188 443.552 127.759 457.833C127.62 462.488 127.012 467.262 125.722 471.722C123.512 479.365 117.561 481.204 111.33 476.212C108.16 473.672 105.661 470.264 103 467.129C101.709 465.608 100.745 463.812 99.9394 462.602C93.1114 464.744 86.672 467.303 79.9927 468.748C66.6699 471.63 53.1066 472.848 39.7336 469.364C20.6254 464.386 12.1657 448.016 18.8266 429.413C20.3001 425.299 22.2934 421.216 24.8068 417.656C33.954 404.705 43.4553 392.004 52.7524 379.158C55.6615 375.139 58.3492 370.961 61.5813 366.202C53.8477 369.394 47.0213 368.452 40.0514 364.732C39.5398 376.031 38.8731 386.927 33.1587 396.562C32.7278 396.592 32.2964 396.623 31.865 396.653C30.8615 393.328 29.6671 390.048 28.8908 386.671C26.8029 377.59 26.6824 368.365 27.5077 359.137C27.7759 356.131 27.3393 353.766 25.3599 351.238C18.5959 342.603 14.1878 332.661 10.7239 322.328C5.4328 306.545 0.961289 290.547 0.0829054 273.8C-0.241225 267.612 0.280729 261.49 3.53242 255.935C3.84905 255.395 4.01919 254.668 3.9892 254.041C2.89166 231.049 12.2966 212.041 26.4759 194.89C29.0384 191.79 31.8933 188.896 34.8583 186.174C41.6316 179.957 49.2954 175.362 58.7962 174.182C53.6874 160.649 60.7952 151.765 70.2636 144.046C79.9402 136.158 91.5299 131.89 103.092 127.671C104.894 127.014 106.683 126.145 108.55 125.875C114.201 125.054 117.274 121.598 120 116.789C127.096 104.274 136.051 93.118 146.382 83.0676C152.549 77.0688 159.979 73.3935 168.069 71.048C177.093 68.4312 185.347 70.9706 193.005 75.8319C201.86 81.4522 208.67 89.0549 214.023 98.0261C220.761 109.32 226.207 121.114 228.168 134.276C228.265 134.927 228.455 135.601 228.76 136.181C234.134 146.368 235.969 157.457 236.436 168.733C236.941 180.923 236.75 193.142 236.929 205.347C236.948 206.644 237.111 208.093 237.708 209.201C241.817 216.819 243.66 225.073 243.937 233.57C244.287 244.315 244.004 255.08 243.994 265.837C243.993 266.852 243.994 267.867 243.994 269.037C251.377 264.521 251.377 264.521 252.922 264.977C254.555 257.786 255.635 250.421 259.344 242.86C267.437 255.182 270.424 268.368 273.456 281.721C273.456 278.969 273.444 276.216 273.458 273.465C273.473 270.677 273.582 267.889 273.528 265.105C273.317 254.249 272.781 243.391 272.894 232.539C273.003 222.154 274.76 212.053 280.865 203.213C282.079 201.456 283.211 200.374 284.715 203.394C285.292 202.256 285.653 201.384 286.148 200.596C287.676 198.16 289.018 195.554 290.86 193.377C296.285 186.962 301.719 187.148 306.722 193.945C312.292 201.516 315.164 210.245 315.393 219.508C315.729 233.038 315.39 246.587 315.176 260.126C314.993 271.677 315.39 283.153 318.397 295.536C320.001 293.34 321.714 291.911 322.211 290.142C323.709 284.801 324.964 279.368 325.903 273.899C329.086 255.348 331.831 236.717 335.313 218.224C336.489 211.977 339.327 206.038 341.493 199.989C341.836 199.029 342.636 198.232 343.224 197.36C343.558 197.423 343.891 197.485 344.224 197.547C344.412 199.856 344.692 202.162 344.774 204.474C345.481 224.393 344.654 244.264 342.823 264.101C340.342 290.992 337.591 317.862 335.449 344.781C334.053 362.324 334.088 379.929 336.233 397.46C336.286 397.898 336.392 398.329 336.594 399.402C337.047 398.34 337.35 397.878 337.442 397.377C340.597 380.28 344.045 363.228 346.722 346.056C347.883 338.608 347.359 330.906 347.759 323.328C348.777 304.091 351.901 285.142 355.37 266.219C356.699 258.97 356.845 251.509 357.647 244.156C360.171 221.037 362.75 197.924 365.313 174.808C365.355 174.427 365.371 174.005 365.549 173.686C365.884 173.086 366.328 172.547 366.726 171.982C367.173 172.516 367.891 172.991 368.023 173.595C369.051 178.285 370.097 182.978 370.879 187.713C371.66 192.446 372.141 197.227 372.858 202.789C373.556 201.164 374.004 200.177 374.409 199.174C378.193 189.786 382.384 180.619 388.918 172.75C390.08 171.349 391.336 169.998 392.702 168.799C401.145 161.378 410.428 161.712 418.317 169.751C423.809 175.351 426.767 182.38 428.567 189.806C431.096 200.238 433.134 210.789 435.424 221.48C437.487 219.578 437.994 221.304 438.601 222.966C442.501 233.639 443.569 244.695 442.584 255.914C442.145 260.912 443.571 265.117 446.304 269.723C446.856 268.406 447.345 267.521 447.606 266.572C449.24 260.648 450.796 254.704 452.456 248.788C452.687 247.966 453.356 247.267 453.822 246.512C454.502 247.123 455.353 247.623 455.836 248.363C460.717 255.849 462.994 264.278 464.346 272.972C465.418 279.87 466.176 286.817 467.184 294.587C467.654 290.9 467.901 287.982 468.417 285.113C469.438 279.437 471.401 274.163 475.623 270.003C478.094 267.567 478.711 267.694 479.913 270.86C484.495 282.934 486.696 295.542 487.345 308.342C488.127 323.781 488.282 339.255 488.583 354.715C488.617 356.493 489.202 357.306 490.734 357.902C493.602 359.018 496.485 358.984 499.108 357.569C501.617 356.215 503.993 354.525 506.176 352.682C507.997 351.147 509.468 349.193 511.065 347.4C516.664 341.114 519.186 334.348 518.881 325.352C518.005 299.518 523.514 274.524 532.077 250.225C534.419 243.581 537.765 237.375 542.46 232.032C543.842 230.459 545.419 228.986 547.133 227.792C550.72 225.289 554.782 224.951 558.135 227.717C561.411 230.419 564.493 233.637 566.792 237.191C573.596 247.711 577.174 259.647 580.907 271.489C583.247 278.916 585.619 286.338 588.254 293.663C588.913 295.492 590.347 297.379 591.949 298.454C594.497 300.164 596.918 299.525 598.794 297.059C600.001 295.472 600.774 293.561 601.815 291.839C605.982 284.947 610.139 278.048 614.399 271.214C615.09 270.105 616.22 269.236 617.249 268.379C622.9 263.673 629.231 264.029 633.593 270.01C641.939 281.453 643.975 294.169 639.87 307.791C637.481 315.721 633.296 322.688 628.571 329.421C625.765 333.42 623.342 337.699 620.898 341.94C619.352 344.624 619.048 347.569 619.931 350.592C620.86 353.77 622.827 355.158 626.001 354.223C628.257 353.559 630.462 352.42 632.42 351.094C639.672 346.183 645.34 339.728 650.489 332.667C654.493 327.176 659 322.029 663.559 316.978C665.107 315.262 667.368 314.015 669.527 313.064C673.424 311.345 676.946 312.576 679.275 316.153C680.003 317.27 680.58 318.514 681.041 319.768C681.637 321.389 682.093 323.066 682.531 324.739C685.63 336.585 688.157 338.593 700.284 339.055C702.787 339.151 704.7 338.394 706.373 336.5C709.171 333.332 712.046 330.219 715.053 327.252C722.626 319.781 729.492 318.399 739.175 322.86C753.518 329.467 768.234 335.003 783.413 339.332C799.522 343.926 815.72 344.636 832.129 340.908C857.919 335.048 884.187 333.14 910.513 332.349C951.607 331.114 992.71 329.952 1033.82 329.494C1073.79 329.049 1113.77 329.41 1153.75 329.649C1179.4 329.801 1205.05 330.359 1230.69 330.761C1262.29 331.255 1293.89 331.767 1325.49 332.329C1326.67 332.35 1327.83 332.98 1329 333.326C1327.79 333.745 1326.57 334.541 1325.36 334.529C1293.85 334.213 1262.34 333.806 1230.83 333.431C1213.54 333.224 1196.24 332.959 1178.95 332.869C1132.43 332.628 1085.92 332.477 1039.4 332.27C1017.88 332.176 996.351 331.831 974.827 331.966C940.14 332.183 905.46 333.041 870.973 337.12C858.211 338.629 845.465 340.667 832.899 343.344C812.916 347.599 793.537 345.897 774.501 339.039C763.753 335.166 753.144 330.904 742.447 326.886C740.025 325.977 737.527 325.232 735.014 324.615C728.951 323.127 723.338 324.25 718.422 328.112C715.86 330.124 713.526 332.429 711.117 334.632C708.708 336.836 706.486 339.274 703.916 341.266C698.225 345.68 692.891 345.255 688.195 339.74C685.996 337.157 684.474 333.953 682.882 330.907C681.149 327.589 679.875 324.026 678.074 320.75C674.615 314.464 669.469 313.667 664.553 318.839C661.058 322.516 658.051 326.659 654.856 330.619C649.734 336.964 644.748 343.424 639.46 349.627C637.888 351.472 635.618 352.834 633.457 354.04C627.891 357.147 622.609 356.372 617.611 352.51C615.951 351.229 615.545 350.012 616.623 348.137C619.829 342.556 623.047 336.977 626.056 331.289C629.827 324.166 633.864 317.13 636.941 309.705C641.62 298.414 639.984 287.259 634.379 276.605C633.626 275.174 632.627 273.835 631.557 272.616C627.901 268.449 623.227 267.613 619.081 271.233C615.598 274.275 612.584 278.033 610.026 281.911C607.022 286.468 604.794 291.53 602.106 296.304C601.127 298.046 599.963 299.748 598.591 301.191C596.064 303.846 593.262 303.915 590.868 301.132C589.015 298.979 587.254 296.515 586.278 293.882C583.041 285.145 580.394 276.187 577.111 267.469C573.628 258.218 569.848 249.067 565.835 240.035C564.462 236.944 562.307 234.041 559.956 231.58C555.523 226.94 549.928 226.814 545.903 231.751C542.306 236.164 539.233 241.181 536.816 246.347C524.336 273.018 519.642 301.228 520.987 330.538C520.998 330.79 521.115 331.035 521.415 332.139V332.139Z" fill="#333333"/>
<path d="M145.039 8.78125C145.768 8.78125 146.344 8.63542 146.766 8.34375C147.193 8.05208 147.406 7.52604 147.406 6.76562C147.406 5.94792 147.109 5.39062 146.516 5.09375C146.198 4.9375 145.773 4.85938 145.242 4.85938H141.445V8.78125H145.039ZM139.891 3.52344H145.203C146.078 3.52344 146.799 3.65104 147.367 3.90625C148.445 4.39583 148.984 5.29948 148.984 6.61719C148.984 7.30469 148.841 7.86719 148.555 8.30469C148.273 8.74219 147.878 9.09375 147.367 9.35938C147.815 9.54167 148.151 9.78125 148.375 10.0781C148.604 10.375 148.732 10.8568 148.758 11.5234L148.812 13.0625C148.828 13.5 148.865 13.8255 148.922 14.0391C149.016 14.4036 149.182 14.638 149.422 14.7422V15H147.516C147.464 14.901 147.422 14.7734 147.391 14.6172C147.359 14.4609 147.333 14.1589 147.312 13.7109L147.219 11.7969C147.182 11.0469 146.904 10.5443 146.383 10.2891C146.086 10.1484 145.62 10.0781 144.984 10.0781H141.445V15H139.891V3.52344ZM156.562 6.44531C157.156 6.44531 157.732 6.58594 158.289 6.86719C158.846 7.14323 159.271 7.5026 159.562 7.94531C159.844 8.36719 160.031 8.85938 160.125 9.42188C160.208 9.80729 160.25 10.4219 160.25 11.2656H154.117C154.143 12.1146 154.344 12.7969 154.719 13.3125C155.094 13.8229 155.674 14.0781 156.461 14.0781C157.195 14.0781 157.781 13.8359 158.219 13.3516C158.469 13.0703 158.646 12.7448 158.75 12.375H160.133C160.096 12.6823 159.974 13.026 159.766 13.4062C159.562 13.7812 159.333 14.0885 159.078 14.3281C158.651 14.7448 158.122 15.026 157.492 15.1719C157.154 15.2552 156.771 15.2969 156.344 15.2969C155.302 15.2969 154.419 14.9193 153.695 14.1641C152.971 13.4036 152.609 12.3411 152.609 10.9766C152.609 9.63281 152.974 8.54167 153.703 7.70312C154.432 6.86458 155.385 6.44531 156.562 6.44531ZM158.805 10.1484C158.747 9.53906 158.615 9.05208 158.406 8.6875C158.021 8.01042 157.378 7.67188 156.477 7.67188C155.831 7.67188 155.289 7.90625 154.852 8.375C154.414 8.83854 154.182 9.42969 154.156 10.1484H158.805ZM164.82 12.375C164.862 12.8438 164.979 13.2031 165.172 13.4531C165.526 13.9062 166.141 14.1328 167.016 14.1328C167.536 14.1328 167.995 14.0208 168.391 13.7969C168.786 13.5677 168.984 13.2161 168.984 12.7422C168.984 12.3828 168.826 12.1094 168.508 11.9219C168.305 11.8073 167.904 11.6745 167.305 11.5234L166.188 11.2422C165.474 11.0651 164.948 10.8672 164.609 10.6484C164.005 10.2682 163.703 9.74219 163.703 9.07031C163.703 8.27865 163.987 7.63802 164.555 7.14844C165.128 6.65885 165.896 6.41406 166.859 6.41406C168.12 6.41406 169.029 6.78385 169.586 7.52344C169.935 7.99219 170.104 8.4974 170.094 9.03906H168.766C168.74 8.72135 168.628 8.43229 168.43 8.17188C168.107 7.80208 167.547 7.61719 166.75 7.61719C166.219 7.61719 165.815 7.71875 165.539 7.92188C165.268 8.125 165.133 8.39323 165.133 8.72656C165.133 9.09115 165.312 9.38281 165.672 9.60156C165.88 9.73177 166.188 9.84635 166.594 9.94531L167.523 10.1719C168.534 10.4167 169.211 10.6536 169.555 10.8828C170.102 11.2422 170.375 11.8073 170.375 12.5781C170.375 13.3229 170.091 13.9661 169.523 14.5078C168.961 15.0495 168.102 15.3203 166.945 15.3203C165.701 15.3203 164.818 15.0391 164.297 14.4766C163.781 13.9089 163.505 13.2083 163.469 12.375H164.82ZM177.469 6.44531C178.062 6.44531 178.638 6.58594 179.195 6.86719C179.753 7.14323 180.177 7.5026 180.469 7.94531C180.75 8.36719 180.938 8.85938 181.031 9.42188C181.115 9.80729 181.156 10.4219 181.156 11.2656H175.023C175.049 12.1146 175.25 12.7969 175.625 13.3125C176 13.8229 176.581 14.0781 177.367 14.0781C178.102 14.0781 178.688 13.8359 179.125 13.3516C179.375 13.0703 179.552 12.7448 179.656 12.375H181.039C181.003 12.6823 180.88 13.026 180.672 13.4062C180.469 13.7812 180.24 14.0885 179.984 14.3281C179.557 14.7448 179.029 15.026 178.398 15.1719C178.06 15.2552 177.677 15.2969 177.25 15.2969C176.208 15.2969 175.326 14.9193 174.602 14.1641C173.878 13.4036 173.516 12.3411 173.516 10.9766C173.516 9.63281 173.88 8.54167 174.609 7.70312C175.339 6.86458 176.292 6.44531 177.469 6.44531ZM179.711 10.1484C179.654 9.53906 179.521 9.05208 179.312 8.6875C178.927 8.01042 178.284 7.67188 177.383 7.67188C176.737 7.67188 176.195 7.90625 175.758 8.375C175.32 8.83854 175.089 9.42969 175.062 10.1484H179.711ZM185.969 12.7734C185.969 13.1797 186.117 13.5 186.414 13.7344C186.711 13.9688 187.062 14.0859 187.469 14.0859C187.964 14.0859 188.443 13.9714 188.906 13.7422C189.688 13.362 190.078 12.7396 190.078 11.875V10.7422C189.906 10.8516 189.685 10.9427 189.414 11.0156C189.143 11.0885 188.878 11.1406 188.617 11.1719L187.766 11.2812C187.255 11.349 186.872 11.4557 186.617 11.6016C186.185 11.8464 185.969 12.237 185.969 12.7734ZM189.375 9.92969C189.698 9.88802 189.914 9.7526 190.023 9.52344C190.086 9.39844 190.117 9.21875 190.117 8.98438C190.117 8.50521 189.945 8.15885 189.602 7.94531C189.263 7.72656 188.776 7.61719 188.141 7.61719C187.406 7.61719 186.885 7.8151 186.578 8.21094C186.406 8.42969 186.294 8.75521 186.242 9.1875H184.93C184.956 8.15625 185.289 7.4401 185.93 7.03906C186.576 6.63281 187.323 6.42969 188.172 6.42969C189.156 6.42969 189.956 6.61719 190.57 6.99219C191.18 7.36719 191.484 7.95052 191.484 8.74219V13.5625C191.484 13.7083 191.513 13.8255 191.57 13.9141C191.633 14.0026 191.76 14.0469 191.953 14.0469C192.016 14.0469 192.086 14.0443 192.164 14.0391C192.242 14.0286 192.326 14.0156 192.414 14V15.0391C192.195 15.1016 192.029 15.1406 191.914 15.1562C191.799 15.1719 191.643 15.1797 191.445 15.1797C190.961 15.1797 190.609 15.0078 190.391 14.6641C190.276 14.4818 190.195 14.224 190.148 13.8906C189.862 14.2656 189.451 14.5911 188.914 14.8672C188.378 15.1432 187.786 15.2812 187.141 15.2812C186.365 15.2812 185.729 15.0469 185.234 14.5781C184.745 14.1042 184.5 13.513 184.5 12.8047C184.5 12.0286 184.742 11.4271 185.227 11C185.711 10.5729 186.346 10.3099 187.133 10.2109L189.375 9.92969ZM195.836 6.63281H197.172V8.07812C197.281 7.79688 197.549 7.45573 197.977 7.05469C198.404 6.64844 198.896 6.44531 199.453 6.44531C199.479 6.44531 199.523 6.44792 199.586 6.45312C199.648 6.45833 199.755 6.46875 199.906 6.48438V7.96875C199.823 7.95312 199.745 7.94271 199.672 7.9375C199.604 7.93229 199.529 7.92969 199.445 7.92969C198.737 7.92969 198.193 8.15885 197.812 8.61719C197.432 9.07031 197.242 9.59375 197.242 10.1875V15H195.836V6.63281ZM206.352 6.39062C207.294 6.39062 208.06 6.61979 208.648 7.07812C209.242 7.53646 209.599 8.32552 209.719 9.44531H208.352C208.268 8.92969 208.078 8.5026 207.781 8.16406C207.484 7.82031 207.008 7.64844 206.352 7.64844C205.456 7.64844 204.815 8.08594 204.43 8.96094C204.18 9.52865 204.055 10.2292 204.055 11.0625C204.055 11.901 204.232 12.6068 204.586 13.1797C204.94 13.7526 205.497 14.0391 206.258 14.0391C206.841 14.0391 207.302 13.862 207.641 13.5078C207.984 13.1484 208.221 12.6589 208.352 12.0391H209.719C209.562 13.1484 209.172 13.9609 208.547 14.4766C207.922 14.987 207.122 15.2422 206.148 15.2422C205.055 15.2422 204.182 14.8438 203.531 14.0469C202.88 13.2448 202.555 12.2448 202.555 11.0469C202.555 9.57812 202.911 8.4349 203.625 7.61719C204.339 6.79948 205.247 6.39062 206.352 6.39062ZM213.125 3.48438H214.531V7.76562C214.865 7.34375 215.164 7.04688 215.43 6.875C215.883 6.57812 216.448 6.42969 217.125 6.42969C218.339 6.42969 219.161 6.85417 219.594 7.70312C219.828 8.16667 219.945 8.8099 219.945 9.63281V15H218.5V9.72656C218.5 9.11198 218.422 8.66146 218.266 8.375C218.01 7.91667 217.531 7.6875 216.828 7.6875C216.245 7.6875 215.716 7.88802 215.242 8.28906C214.768 8.6901 214.531 9.44792 214.531 10.5625V15H213.125V3.48438Z" fill="#333333"/>
<path d="M609.414 3.21094C610.867 3.21094 611.995 3.59375 612.797 4.35938C613.599 5.125 614.044 5.99479 614.133 6.96875H612.617C612.445 6.22917 612.102 5.64323 611.586 5.21094C611.076 4.77865 610.357 4.5625 609.43 4.5625C608.299 4.5625 607.385 4.96094 606.688 5.75781C605.995 6.54948 605.648 7.76562 605.648 9.40625C605.648 10.75 605.961 11.8411 606.586 12.6797C607.216 13.513 608.154 13.9297 609.398 13.9297C610.544 13.9297 611.417 13.4896 612.016 12.6094C612.333 12.1458 612.57 11.5365 612.727 10.7812H614.242C614.107 11.9896 613.659 13.0026 612.898 13.8203C611.987 14.8047 610.758 15.2969 609.211 15.2969C607.878 15.2969 606.758 14.8932 605.852 14.0859C604.659 13.0182 604.062 11.3698 604.062 9.14062C604.062 7.44792 604.51 6.0599 605.406 4.97656C606.375 3.79948 607.711 3.21094 609.414 3.21094ZM621.273 14.0938C622.206 14.0938 622.844 13.7422 623.188 13.0391C623.536 12.3307 623.711 11.5443 623.711 10.6797C623.711 9.89844 623.586 9.26302 623.336 8.77344C622.94 8.0026 622.258 7.61719 621.289 7.61719C620.43 7.61719 619.805 7.94531 619.414 8.60156C619.023 9.25781 618.828 10.0495 618.828 10.9766C618.828 11.8672 619.023 12.6094 619.414 13.2031C619.805 13.7969 620.424 14.0938 621.273 14.0938ZM621.328 6.39062C622.406 6.39062 623.318 6.75 624.062 7.46875C624.807 8.1875 625.18 9.24479 625.18 10.6406C625.18 11.9896 624.852 13.1042 624.195 13.9844C623.539 14.8646 622.521 15.3047 621.141 15.3047C619.99 15.3047 619.076 14.9167 618.398 14.1406C617.721 13.3594 617.383 12.3125 617.383 11C617.383 9.59375 617.74 8.47396 618.453 7.64062C619.167 6.80729 620.125 6.39062 621.328 6.39062ZM628.859 6.63281H630.195V7.82031C630.591 7.33073 631.01 6.97917 631.453 6.76562C631.896 6.55208 632.388 6.44531 632.93 6.44531C634.117 6.44531 634.919 6.85938 635.336 7.6875C635.565 8.14062 635.68 8.78906 635.68 9.63281V15H634.25V9.72656C634.25 9.21615 634.174 8.80469 634.023 8.49219C633.773 7.97135 633.32 7.71094 632.664 7.71094C632.331 7.71094 632.057 7.74479 631.844 7.8125C631.458 7.92708 631.12 8.15625 630.828 8.5C630.594 8.77604 630.44 9.0625 630.367 9.35938C630.299 9.65104 630.266 10.0703 630.266 10.6172V15H628.859V6.63281ZM642.992 6.39062C643.935 6.39062 644.701 6.61979 645.289 7.07812C645.883 7.53646 646.24 8.32552 646.359 9.44531H644.992C644.909 8.92969 644.719 8.5026 644.422 8.16406C644.125 7.82031 643.648 7.64844 642.992 7.64844C642.096 7.64844 641.456 8.08594 641.07 8.96094C640.82 9.52865 640.695 10.2292 640.695 11.0625C640.695 11.901 640.872 12.6068 641.227 13.1797C641.581 13.7526 642.138 14.0391 642.898 14.0391C643.482 14.0391 643.943 13.862 644.281 13.5078C644.625 13.1484 644.862 12.6589 644.992 12.0391H646.359C646.203 13.1484 645.812 13.9609 645.188 14.4766C644.562 14.987 643.763 15.2422 642.789 15.2422C641.695 15.2422 640.823 14.8438 640.172 14.0469C639.521 13.2448 639.195 12.2448 639.195 11.0469C639.195 9.57812 639.552 8.4349 640.266 7.61719C640.979 6.79948 641.888 6.39062 642.992 6.39062ZM653.25 6.44531C653.844 6.44531 654.419 6.58594 654.977 6.86719C655.534 7.14323 655.958 7.5026 656.25 7.94531C656.531 8.36719 656.719 8.85938 656.812 9.42188C656.896 9.80729 656.938 10.4219 656.938 11.2656H650.805C650.831 12.1146 651.031 12.7969 651.406 13.3125C651.781 13.8229 652.362 14.0781 653.148 14.0781C653.883 14.0781 654.469 13.8359 654.906 13.3516C655.156 13.0703 655.333 12.7448 655.438 12.375H656.82C656.784 12.6823 656.661 13.026 656.453 13.4062C656.25 13.7812 656.021 14.0885 655.766 14.3281C655.339 14.7448 654.81 15.026 654.18 15.1719C653.841 15.2552 653.458 15.2969 653.031 15.2969C651.99 15.2969 651.107 14.9193 650.383 14.1641C649.659 13.4036 649.297 12.3411 649.297 10.9766C649.297 9.63281 649.661 8.54167 650.391 7.70312C651.12 6.86458 652.073 6.44531 653.25 6.44531ZM655.492 10.1484C655.435 9.53906 655.302 9.05208 655.094 8.6875C654.708 8.01042 654.065 7.67188 653.164 7.67188C652.518 7.67188 651.977 7.90625 651.539 8.375C651.102 8.83854 650.87 9.42969 650.844 10.1484H655.492ZM664.203 14.0547C664.859 14.0547 665.404 13.7812 665.836 13.2344C666.273 12.6823 666.492 11.8594 666.492 10.7656C666.492 10.099 666.396 9.52604 666.203 9.04688C665.839 8.125 665.172 7.66406 664.203 7.66406C663.229 7.66406 662.562 8.15104 662.203 9.125C662.01 9.64583 661.914 10.3073 661.914 11.1094C661.914 11.7552 662.01 12.3047 662.203 12.7578C662.568 13.6224 663.234 14.0547 664.203 14.0547ZM660.562 6.67188H661.93V7.78125C662.211 7.40104 662.518 7.10677 662.852 6.89844C663.326 6.58594 663.883 6.42969 664.523 6.42969C665.471 6.42969 666.276 6.79427 666.938 7.52344C667.599 8.2474 667.93 9.28385 667.93 10.6328C667.93 12.4557 667.453 13.7578 666.5 14.5391C665.896 15.0339 665.193 15.2812 664.391 15.2812C663.76 15.2812 663.232 15.1432 662.805 14.8672C662.555 14.7109 662.276 14.4427 661.969 14.0625V18.3359H660.562V6.67188ZM671.859 4.29688H673.281V6.63281H674.617V7.78125H673.281V13.2422C673.281 13.5339 673.38 13.7292 673.578 13.8281C673.688 13.8854 673.87 13.9141 674.125 13.9141C674.193 13.9141 674.266 13.9141 674.344 13.9141C674.422 13.9089 674.513 13.901 674.617 13.8906V15C674.456 15.0469 674.286 15.0807 674.109 15.1016C673.938 15.1224 673.75 15.1328 673.547 15.1328C672.891 15.1328 672.445 14.9661 672.211 14.6328C671.977 14.2943 671.859 13.8568 671.859 13.3203V7.78125H670.727V6.63281H671.859V4.29688Z" fill="#333333"/>
<path d="M300.914 569.523V576.617C300.914 577.451 301.07 578.143 301.383 578.695C301.846 579.529 302.628 579.945 303.727 579.945C305.044 579.945 305.94 579.495 306.414 578.594C306.669 578.104 306.797 577.445 306.797 576.617V569.523H308.375V575.969C308.375 577.38 308.185 578.466 307.805 579.227C307.107 580.612 305.789 581.305 303.852 581.305C301.914 581.305 300.599 580.612 299.906 579.227C299.526 578.466 299.336 577.38 299.336 575.969V569.523H300.914ZM312.602 572.633H313.938V573.82C314.333 573.331 314.753 572.979 315.195 572.766C315.638 572.552 316.13 572.445 316.672 572.445C317.859 572.445 318.661 572.859 319.078 573.688C319.307 574.141 319.422 574.789 319.422 575.633V581H317.992V575.727C317.992 575.216 317.917 574.805 317.766 574.492C317.516 573.971 317.062 573.711 316.406 573.711C316.073 573.711 315.799 573.745 315.586 573.812C315.201 573.927 314.862 574.156 314.57 574.5C314.336 574.776 314.182 575.062 314.109 575.359C314.042 575.651 314.008 576.07 314.008 576.617V581H312.602V572.633ZM326.734 572.391C327.677 572.391 328.443 572.62 329.031 573.078C329.625 573.536 329.982 574.326 330.102 575.445H328.734C328.651 574.93 328.461 574.503 328.164 574.164C327.867 573.82 327.391 573.648 326.734 573.648C325.839 573.648 325.198 574.086 324.812 574.961C324.562 575.529 324.438 576.229 324.438 577.062C324.438 577.901 324.615 578.607 324.969 579.18C325.323 579.753 325.88 580.039 326.641 580.039C327.224 580.039 327.685 579.862 328.023 579.508C328.367 579.148 328.604 578.659 328.734 578.039H330.102C329.945 579.148 329.555 579.961 328.93 580.477C328.305 580.987 327.505 581.242 326.531 581.242C325.438 581.242 324.565 580.844 323.914 580.047C323.263 579.245 322.938 578.245 322.938 577.047C322.938 575.578 323.294 574.435 324.008 573.617C324.721 572.799 325.63 572.391 326.734 572.391ZM336.992 572.445C337.586 572.445 338.161 572.586 338.719 572.867C339.276 573.143 339.701 573.503 339.992 573.945C340.273 574.367 340.461 574.859 340.555 575.422C340.638 575.807 340.68 576.422 340.68 577.266H334.547C334.573 578.115 334.773 578.797 335.148 579.312C335.523 579.823 336.104 580.078 336.891 580.078C337.625 580.078 338.211 579.836 338.648 579.352C338.898 579.07 339.076 578.745 339.18 578.375H340.562C340.526 578.682 340.404 579.026 340.195 579.406C339.992 579.781 339.763 580.089 339.508 580.328C339.081 580.745 338.552 581.026 337.922 581.172C337.583 581.255 337.201 581.297 336.773 581.297C335.732 581.297 334.849 580.919 334.125 580.164C333.401 579.404 333.039 578.341 333.039 576.977C333.039 575.633 333.404 574.542 334.133 573.703C334.862 572.865 335.815 572.445 336.992 572.445ZM339.234 576.148C339.177 575.539 339.044 575.052 338.836 574.688C338.451 574.01 337.807 573.672 336.906 573.672C336.26 573.672 335.719 573.906 335.281 574.375C334.844 574.839 334.612 575.43 334.586 576.148H339.234ZM344.453 572.633H345.789V574.078C345.898 573.797 346.167 573.456 346.594 573.055C347.021 572.648 347.513 572.445 348.07 572.445C348.096 572.445 348.141 572.448 348.203 572.453C348.266 572.458 348.372 572.469 348.523 572.484V573.969C348.44 573.953 348.362 573.943 348.289 573.938C348.221 573.932 348.146 573.93 348.062 573.93C347.354 573.93 346.81 574.159 346.43 574.617C346.049 575.07 345.859 575.594 345.859 576.188V581H344.453V572.633ZM352.023 570.297H353.445V572.633H354.781V573.781H353.445V579.242C353.445 579.534 353.544 579.729 353.742 579.828C353.852 579.885 354.034 579.914 354.289 579.914C354.357 579.914 354.43 579.914 354.508 579.914C354.586 579.909 354.677 579.901 354.781 579.891V581C354.62 581.047 354.451 581.081 354.273 581.102C354.102 581.122 353.914 581.133 353.711 581.133C353.055 581.133 352.609 580.966 352.375 580.633C352.141 580.294 352.023 579.857 352.023 579.32V573.781H350.891V572.633H352.023V570.297ZM359.273 578.773C359.273 579.18 359.422 579.5 359.719 579.734C360.016 579.969 360.367 580.086 360.773 580.086C361.268 580.086 361.747 579.971 362.211 579.742C362.992 579.362 363.383 578.74 363.383 577.875V576.742C363.211 576.852 362.99 576.943 362.719 577.016C362.448 577.089 362.182 577.141 361.922 577.172L361.07 577.281C360.56 577.349 360.177 577.456 359.922 577.602C359.49 577.846 359.273 578.237 359.273 578.773ZM362.68 575.93C363.003 575.888 363.219 575.753 363.328 575.523C363.391 575.398 363.422 575.219 363.422 574.984C363.422 574.505 363.25 574.159 362.906 573.945C362.568 573.727 362.081 573.617 361.445 573.617C360.711 573.617 360.19 573.815 359.883 574.211C359.711 574.43 359.599 574.755 359.547 575.188H358.234C358.26 574.156 358.594 573.44 359.234 573.039C359.88 572.633 360.628 572.43 361.477 572.43C362.461 572.43 363.26 572.617 363.875 572.992C364.484 573.367 364.789 573.951 364.789 574.742V579.562C364.789 579.708 364.818 579.826 364.875 579.914C364.938 580.003 365.065 580.047 365.258 580.047C365.32 580.047 365.391 580.044 365.469 580.039C365.547 580.029 365.63 580.016 365.719 580V581.039C365.5 581.102 365.333 581.141 365.219 581.156C365.104 581.172 364.948 581.18 364.75 581.18C364.266 581.18 363.914 581.008 363.695 580.664C363.581 580.482 363.5 580.224 363.453 579.891C363.167 580.266 362.755 580.591 362.219 580.867C361.682 581.143 361.091 581.281 360.445 581.281C359.669 581.281 359.034 581.047 358.539 580.578C358.049 580.104 357.805 579.513 357.805 578.805C357.805 578.029 358.047 577.427 358.531 577C359.016 576.573 359.651 576.31 360.438 576.211L362.68 575.93ZM369.102 572.672H370.531V581H369.102V572.672ZM369.102 569.523H370.531V571.117H369.102V569.523ZM374.664 572.633H376V573.82C376.396 573.331 376.815 572.979 377.258 572.766C377.701 572.552 378.193 572.445 378.734 572.445C379.922 572.445 380.724 572.859 381.141 573.688C381.37 574.141 381.484 574.789 381.484 575.633V581H380.055V575.727C380.055 575.216 379.979 574.805 379.828 574.492C379.578 573.971 379.125 573.711 378.469 573.711C378.135 573.711 377.862 573.745 377.648 573.812C377.263 573.927 376.924 574.156 376.633 574.5C376.398 574.776 376.245 575.062 376.172 575.359C376.104 575.651 376.07 576.07 376.07 576.617V581H374.664V572.633ZM385.852 570.297H387.273V572.633H388.609V573.781H387.273V579.242C387.273 579.534 387.372 579.729 387.57 579.828C387.68 579.885 387.862 579.914 388.117 579.914C388.185 579.914 388.258 579.914 388.336 579.914C388.414 579.909 388.505 579.901 388.609 579.891V581C388.448 581.047 388.279 581.081 388.102 581.102C387.93 581.122 387.742 581.133 387.539 581.133C386.883 581.133 386.438 580.966 386.203 580.633C385.969 580.294 385.852 579.857 385.852 579.32V573.781H384.719V572.633H385.852V570.297ZM397.25 572.633H398.805C398.607 573.169 398.167 574.393 397.484 576.305C396.974 577.742 396.547 578.914 396.203 579.82C395.391 581.956 394.818 583.258 394.484 583.727C394.151 584.195 393.578 584.43 392.766 584.43C392.568 584.43 392.414 584.422 392.305 584.406C392.201 584.391 392.07 584.362 391.914 584.32V583.039C392.159 583.107 392.336 583.148 392.445 583.164C392.555 583.18 392.651 583.188 392.734 583.188C392.995 583.188 393.185 583.143 393.305 583.055C393.43 582.971 393.534 582.867 393.617 582.742C393.643 582.701 393.737 582.487 393.898 582.102C394.06 581.716 394.177 581.43 394.25 581.242L391.156 572.633H392.75L394.992 579.445L397.25 572.633Z" fill="#333333"/>
<path d="M992.367 569.211C993.82 569.211 994.948 569.594 995.75 570.359C996.552 571.125 996.997 571.995 997.086 572.969H995.57C995.398 572.229 995.055 571.643 994.539 571.211C994.029 570.779 993.31 570.562 992.383 570.562C991.253 570.562 990.339 570.961 989.641 571.758C988.948 572.549 988.602 573.766 988.602 575.406C988.602 576.75 988.914 577.841 989.539 578.68C990.169 579.513 991.107 579.93 992.352 579.93C993.497 579.93 994.37 579.49 994.969 578.609C995.286 578.146 995.523 577.536 995.68 576.781H997.195C997.06 577.99 996.612 579.003 995.852 579.82C994.94 580.805 993.711 581.297 992.164 581.297C990.831 581.297 989.711 580.893 988.805 580.086C987.612 579.018 987.016 577.37 987.016 575.141C987.016 573.448 987.464 572.06 988.359 570.977C989.328 569.799 990.664 569.211 992.367 569.211ZM1000.95 569.523H1002.35V581H1000.95V569.523ZM1007.55 578.773C1007.55 579.18 1007.7 579.5 1007.99 579.734C1008.29 579.969 1008.64 580.086 1009.05 580.086C1009.54 580.086 1010.02 579.971 1010.48 579.742C1011.27 579.362 1011.66 578.74 1011.66 577.875V576.742C1011.48 576.852 1011.26 576.943 1010.99 577.016C1010.72 577.089 1010.46 577.141 1010.2 577.172L1009.34 577.281C1008.83 577.349 1008.45 577.456 1008.2 577.602C1007.76 577.846 1007.55 578.237 1007.55 578.773ZM1010.95 575.93C1011.28 575.888 1011.49 575.753 1011.6 575.523C1011.66 575.398 1011.7 575.219 1011.7 574.984C1011.7 574.505 1011.52 574.159 1011.18 573.945C1010.84 573.727 1010.35 573.617 1009.72 573.617C1008.98 573.617 1008.46 573.815 1008.16 574.211C1007.98 574.43 1007.87 574.755 1007.82 575.188H1006.51C1006.53 574.156 1006.87 573.44 1007.51 573.039C1008.15 572.633 1008.9 572.43 1009.75 572.43C1010.73 572.43 1011.53 572.617 1012.15 572.992C1012.76 573.367 1013.06 573.951 1013.06 574.742V579.562C1013.06 579.708 1013.09 579.826 1013.15 579.914C1013.21 580.003 1013.34 580.047 1013.53 580.047C1013.59 580.047 1013.66 580.044 1013.74 580.039C1013.82 580.029 1013.9 580.016 1013.99 580V581.039C1013.77 581.102 1013.61 581.141 1013.49 581.156C1013.38 581.172 1013.22 581.18 1013.02 581.18C1012.54 581.18 1012.19 581.008 1011.97 580.664C1011.85 580.482 1011.77 580.224 1011.73 579.891C1011.44 580.266 1011.03 580.591 1010.49 580.867C1009.96 581.143 1009.36 581.281 1008.72 581.281C1007.94 581.281 1007.31 581.047 1006.81 580.578C1006.32 580.104 1006.08 579.513 1006.08 578.805C1006.08 578.029 1006.32 577.427 1006.8 577C1007.29 576.573 1007.92 576.31 1008.71 576.211L1010.95 575.93ZM1017.41 572.633H1018.75V574.078C1018.86 573.797 1019.13 573.456 1019.55 573.055C1019.98 572.648 1020.47 572.445 1021.03 572.445C1021.06 572.445 1021.1 572.448 1021.16 572.453C1021.23 572.458 1021.33 572.469 1021.48 572.484V573.969C1021.4 573.953 1021.32 573.943 1021.25 573.938C1021.18 573.932 1021.11 573.93 1021.02 573.93C1020.32 573.93 1019.77 574.159 1019.39 574.617C1019.01 575.07 1018.82 575.594 1018.82 576.188V581H1017.41V572.633ZM1024.7 572.672H1026.13V581H1024.7V572.672ZM1024.7 569.523H1026.13V571.117H1024.7V569.523ZM1030.55 570.297H1031.97V572.633H1033.3V573.781H1031.97V579.242C1031.97 579.534 1032.07 579.729 1032.27 579.828C1032.38 579.885 1032.56 579.914 1032.81 579.914C1032.88 579.914 1032.95 579.914 1033.03 579.914C1033.11 579.909 1033.2 579.901 1033.3 579.891V581C1033.14 581.047 1032.97 581.081 1032.8 581.102C1032.62 581.122 1032.44 581.133 1032.23 581.133C1031.58 581.133 1031.13 580.966 1030.9 580.633C1030.66 580.294 1030.55 579.857 1030.55 579.32V573.781H1029.41V572.633H1030.55V570.297ZM1041.95 572.633H1043.5C1043.3 573.169 1042.86 574.393 1042.18 576.305C1041.67 577.742 1041.24 578.914 1040.9 579.82C1040.09 581.956 1039.51 583.258 1039.18 583.727C1038.85 584.195 1038.27 584.43 1037.46 584.43C1037.26 584.43 1037.11 584.422 1037 584.406C1036.9 584.391 1036.77 584.362 1036.61 584.32V583.039C1036.85 583.107 1037.03 583.148 1037.14 583.164C1037.25 583.18 1037.35 583.188 1037.43 583.188C1037.69 583.188 1037.88 583.143 1038 583.055C1038.12 582.971 1038.23 582.867 1038.31 582.742C1038.34 582.701 1038.43 582.487 1038.59 582.102C1038.76 581.716 1038.87 581.43 1038.95 581.242L1035.85 572.633H1037.45L1039.69 579.445L1041.95 572.633Z" fill="#333333"/>
<path d="M1252.78 13.6719C1253.31 13.6719 1253.74 13.6172 1254.08 13.5078C1254.68 13.3047 1255.18 12.9141 1255.56 12.3359C1255.87 11.8724 1256.09 11.2786 1256.23 10.5547C1256.3 10.1224 1256.34 9.72135 1256.34 9.35156C1256.34 7.92969 1256.06 6.82552 1255.49 6.03906C1254.93 5.2526 1254.02 4.85938 1252.77 4.85938H1250.01V13.6719H1252.78ZM1248.45 3.52344H1253.09C1254.67 3.52344 1255.9 4.08333 1256.77 5.20312C1257.54 6.21354 1257.93 7.50781 1257.93 9.08594C1257.93 10.3047 1257.7 11.4062 1257.24 12.3906C1256.43 14.1302 1255.05 15 1253.08 15H1248.45V3.52344ZM1265.23 6.44531C1265.83 6.44531 1266.4 6.58594 1266.96 6.86719C1267.52 7.14323 1267.94 7.5026 1268.23 7.94531C1268.52 8.36719 1268.7 8.85938 1268.8 9.42188C1268.88 9.80729 1268.92 10.4219 1268.92 11.2656H1262.79C1262.82 12.1146 1263.02 12.7969 1263.39 13.3125C1263.77 13.8229 1264.35 14.0781 1265.13 14.0781C1265.87 14.0781 1266.45 13.8359 1266.89 13.3516C1267.14 13.0703 1267.32 12.7448 1267.42 12.375H1268.8C1268.77 12.6823 1268.65 13.026 1268.44 13.4062C1268.23 13.7812 1268.01 14.0885 1267.75 14.3281C1267.32 14.7448 1266.79 15.026 1266.16 15.1719C1265.83 15.2552 1265.44 15.2969 1265.02 15.2969C1263.97 15.2969 1263.09 14.9193 1262.37 14.1641C1261.64 13.4036 1261.28 12.3411 1261.28 10.9766C1261.28 9.63281 1261.65 8.54167 1262.38 7.70312C1263.1 6.86458 1264.06 6.44531 1265.23 6.44531ZM1267.48 10.1484C1267.42 9.53906 1267.29 9.05208 1267.08 8.6875C1266.69 8.01042 1266.05 7.67188 1265.15 7.67188C1264.5 7.67188 1263.96 7.90625 1263.52 8.375C1263.09 8.83854 1262.85 9.42969 1262.83 10.1484H1267.48ZM1273.49 12.375C1273.53 12.8438 1273.65 13.2031 1273.84 13.4531C1274.2 13.9062 1274.81 14.1328 1275.69 14.1328C1276.21 14.1328 1276.67 14.0208 1277.06 13.7969C1277.46 13.5677 1277.66 13.2161 1277.66 12.7422C1277.66 12.3828 1277.5 12.1094 1277.18 11.9219C1276.98 11.8073 1276.58 11.6745 1275.98 11.5234L1274.86 11.2422C1274.15 11.0651 1273.62 10.8672 1273.28 10.6484C1272.68 10.2682 1272.38 9.74219 1272.38 9.07031C1272.38 8.27865 1272.66 7.63802 1273.23 7.14844C1273.8 6.65885 1274.57 6.41406 1275.53 6.41406C1276.79 6.41406 1277.7 6.78385 1278.26 7.52344C1278.61 7.99219 1278.78 8.4974 1278.77 9.03906H1277.44C1277.41 8.72135 1277.3 8.43229 1277.1 8.17188C1276.78 7.80208 1276.22 7.61719 1275.42 7.61719C1274.89 7.61719 1274.49 7.71875 1274.21 7.92188C1273.94 8.125 1273.8 8.39323 1273.8 8.72656C1273.8 9.09115 1273.98 9.38281 1274.34 9.60156C1274.55 9.73177 1274.86 9.84635 1275.27 9.94531L1276.2 10.1719C1277.21 10.4167 1277.88 10.6536 1278.23 10.8828C1278.77 11.2422 1279.05 11.8073 1279.05 12.5781C1279.05 13.3229 1278.76 13.9661 1278.2 14.5078C1277.63 15.0495 1276.77 15.3203 1275.62 15.3203C1274.37 15.3203 1273.49 15.0391 1272.97 14.4766C1272.45 13.9089 1272.18 13.2083 1272.14 12.375H1273.49ZM1282.66 6.67188H1284.09V15H1282.66V6.67188ZM1282.66 3.52344H1284.09V5.11719H1282.66V3.52344ZM1291.17 6.48438C1291.83 6.48438 1292.4 6.64583 1292.89 6.96875C1293.16 7.15104 1293.43 7.41667 1293.7 7.76562V6.71094H1295V14.3203C1295 15.3828 1294.84 16.2214 1294.53 16.8359C1293.95 17.9714 1292.85 18.5391 1291.23 18.5391C1290.33 18.5391 1289.57 18.3359 1288.95 17.9297C1288.34 17.5286 1287.99 16.8984 1287.92 16.0391H1289.35C1289.42 16.4141 1289.55 16.7031 1289.76 16.9062C1290.08 17.2188 1290.58 17.375 1291.26 17.375C1292.34 17.375 1293.04 16.9948 1293.38 16.2344C1293.57 15.7865 1293.66 14.987 1293.65 13.8359C1293.37 14.263 1293.03 14.5807 1292.63 14.7891C1292.24 14.9974 1291.71 15.1016 1291.06 15.1016C1290.16 15.1016 1289.36 14.7812 1288.68 14.1406C1288 13.4948 1287.66 12.4297 1287.66 10.9453C1287.66 9.54427 1288.01 8.45052 1288.69 7.66406C1289.38 6.8776 1290.2 6.48438 1291.17 6.48438ZM1293.7 10.7812C1293.7 9.74479 1293.49 8.97656 1293.06 8.47656C1292.64 7.97656 1292.09 7.72656 1291.43 7.72656C1290.44 7.72656 1289.76 8.1901 1289.4 9.11719C1289.21 9.61198 1289.11 10.2604 1289.11 11.0625C1289.11 12.0052 1289.3 12.724 1289.68 13.2188C1290.07 13.7083 1290.58 13.9531 1291.23 13.9531C1292.24 13.9531 1292.95 13.4974 1293.36 12.5859C1293.59 12.0703 1293.7 11.4688 1293.7 10.7812ZM1299.12 6.63281H1300.46V7.82031C1300.86 7.33073 1301.28 6.97917 1301.72 6.76562C1302.16 6.55208 1302.65 6.44531 1303.2 6.44531C1304.38 6.44531 1305.18 6.85938 1305.6 7.6875C1305.83 8.14062 1305.95 8.78906 1305.95 9.63281V15H1304.52V9.72656C1304.52 9.21615 1304.44 8.80469 1304.29 8.49219C1304.04 7.97135 1303.59 7.71094 1302.93 7.71094C1302.6 7.71094 1302.32 7.74479 1302.11 7.8125C1301.72 7.92708 1301.39 8.15625 1301.09 8.5C1300.86 8.77604 1300.71 9.0625 1300.63 9.35938C1300.57 9.65104 1300.53 10.0703 1300.53 10.6172V15H1299.12V6.63281Z" fill="#333333"/>
<path d="M1326.5 6V555.103" stroke="#333333" stroke-width="1.5" stroke-linecap="square"/>
<path d="M695.5 6V555.103" stroke="#333333" stroke-width="1.5" stroke-linecap="square"/>
<path d="M240.5 6V555.103" stroke="#333333" stroke-width="1.5" stroke-linecap="square"/>
<path d="M0 575.552H252.052" stroke="#333333" stroke-width="1.5" stroke-linecap="square"/>
<path d="M439.948 575.552H675.052" stroke="#333333" stroke-width="1.5" stroke-linecap="square"/>
<path d="M715.948 575.552H949.052" stroke="#333333" stroke-width="1.5" stroke-linecap="square"/>
<path d="M1072.95 575.552H1306.05" stroke="#333333" stroke-width="1.5" stroke-linecap="square"/>
</g>
<defs>
<clipPath id="clip0">
<rect width="1329" height="587" fill="white"/>
</clipPath>
</defs>
</svg>
